<?xml version="1.0"?>
<svg width="948" height="206" xmlns="http://www.w3.org/2000/svg" xmlns:svg="http://www.w3.org/2000/svg" version="1.1">
 <g class="layer">
  <title>Layer 1</title>
  <path d="m302,11c5.21,3.18 7.57,7.88 10.44,13.06c0.45,0.8 0.9,1.59 1.37,2.41c2.39,4.25 4.73,8.52 7.05,12.8c3.53,6.49 7.2,12.89 10.89,19.29c0.68,1.19 1.36,2.37 2.04,3.56c0.64,1.12 1.28,2.23 1.94,3.38c0.87,1.52 0.87,1.52 1.76,3.06c1.42,2.5 1.42,2.5 3.51,4.44c0.45,-0.79 0.9,-1.58 1.36,-2.39c4.49,-7.88 9.02,-15.73 13.56,-23.56c2.45,-4.23 4.89,-8.46 7.29,-12.71c2.97,-5.23 5.99,-10.44 9.1,-15.59c0.64,-1.06 1.27,-2.11 1.93,-3.2c1.76,-2.55 1.76,-2.55 4.76,-4.55c3.38,-0.44 3.38,-0.44 7,0c2.63,2.17 4.47,3.95 6,7c0.1,2.49 0.15,4.94 0.15,7.43c0,0.77 0,1.53 0.01,2.32c0,2.54 0.01,5.08 0.01,7.62c0,1.76 0,3.52 0.01,5.28c0,3.7 0.01,7.39 0.01,11.09c0,4.74 0.01,9.48 0.03,14.22c0.01,3.63 0.01,7.27 0.01,10.91c0,1.75 0,3.5 0.01,5.24c0.01,2.45 0.01,4.89 0,7.33c0.01,0.72 0.01,1.45 0.02,2.2c-0.02,3.68 -0.16,5.21 -2.26,8.36c-3.19,0.33 -3.19,0.33 -7,0.25c-1.26,-0.02 -2.52,-0.03 -3.81,-0.05c-3.19,-0.2 -3.19,-0.2 -5.19,-1.2c-0.33,-14.52 -0.66,-29.04 -1,-44c-3.97,6.23 -7.67,12.12 -11.13,18.55c-2.63,4.84 -5.3,9.65 -7.99,14.45c-0.78,1.4 -0.78,1.4 -1.57,2.83c-0.49,0.88 -0.99,1.76 -1.51,2.67c-0.44,0.79 -0.88,1.59 -1.34,2.41c-1.6,2.29 -3.09,3.62 -5.46,5.09c-3.66,0.55 -5.35,0.43 -8.45,-1.63c-2.9,-2.7 -4.47,-5.27 -6.36,-8.74c-0.7,-1.26 -1.39,-2.52 -2.08,-3.78c-0.35,-0.64 -0.7,-1.28 -1.06,-1.94c-1.64,-2.99 -3.35,-5.95 -5.05,-8.91c-1.33,-2.33 -2.67,-4.67 -4,-7c-0.71,-1.25 -1.43,-2.5 -2.14,-3.75c-2.93,-5.12 -2.93,-5.12 -5.86,-10.25c-0.02,1.29 -0.04,2.58 -0.06,3.92c-0.08,4.78 -0.16,9.56 -0.26,14.34c-0.04,2.07 -0.07,4.15 -0.1,6.22c-0.05,2.97 -0.11,5.94 -0.17,8.92c-0.01,1.39 -0.01,1.39 -0.03,2.82c-0.02,0.86 -0.04,1.72 -0.06,2.61c-0.01,0.76 -0.03,1.51 -0.04,2.3c-0.28,1.87 -0.28,1.87 -2.28,3.87c-2.56,0.17 -5,0.23 -7.56,0.19c-0.7,0 -1.4,0 -2.12,0c-5.18,-0.05 -5.18,-0.05 -6.32,-1.19c-0.11,-2.53 -0.15,-5.04 -0.15,-7.58c0,-0.79 0,-1.58 -0.01,-2.4c0,-2.64 -0.01,-5.28 -0.01,-7.91c0,-1.83 0,-3.66 -0.01,-5.49c0,-3.83 -0.01,-7.67 -0.01,-11.51c0,-4.92 -0.01,-9.84 -0.03,-14.76c-0.01,-3.78 -0.01,-7.55 -0.01,-11.33c0,-1.81 0,-3.63 -0.01,-5.44c-0.01,-2.54 -0.01,-5.08 0,-7.61c-0.01,-0.76 -0.01,-1.51 -0.02,-2.28c0.02,-3.7 0.06,-6.63 2.26,-9.69c3.74,-2.49 5.57,-2.46 10,-2z" fill="#000000" id="svg_1"/>
  <path d="m234.33,11.66c0.95,-0.01 1.9,-0.01 2.88,-0.02c2,-0.01 4,-0.01 6,-0.01c3.05,-0.01 6.1,-0.05 9.15,-0.08c1.95,-0.01 3.9,-0.01 5.85,-0.02c0.9,-0.01 1.81,-0.02 2.75,-0.04c4.21,0.03 6.45,0.13 10.09,2.41c3.47,3.72 3.09,6.91 3.07,11.76c0,0.79 0,1.58 0,2.39c0,2.62 -0.01,5.24 -0.02,7.86c0,1.81 0,3.63 0,5.44c-0.01,4.78 -0.02,9.55 -0.03,14.33c-0.01,4.87 -0.01,9.75 -0.02,14.62c-0.01,9.57 -0.03,19.13 -0.05,28.7c-2.97,1.48 -5.7,1.21 -9,1.25c-1.26,0.02 -2.51,0.05 -3.81,0.07c-1.05,-0.1 -2.1,-0.21 -3.19,-0.32c-2,-3 -2,-3 -2,-21c-25.24,0.49 -25.24,0.49 -51,1c-0.33,6.27 -0.66,12.54 -1,19c-1,1 -1,1 -4.38,1.09c-1.39,0 -2.79,-0.02 -4.18,-0.03c-0.71,-0.01 -1.42,-0.01 -2.15,-0.02c-1.77,-0.01 -3.53,-0.02 -5.29,-0.04c-1.62,-2.87 -2.25,-4.93 -2.26,-8.21c0,-0.83 -0.01,-1.65 -0.02,-2.5c0.01,-0.88 0.01,-1.76 0.02,-2.67c-0.01,-0.92 -0.01,-1.84 -0.01,-2.79c0,-1.95 0,-3.9 0.01,-5.85c0.01,-2.95 0,-5.89 -0.01,-8.84c-0.02,-16.74 0.41,-32.03 12.4,-45.02c10.34,-9.59 22.52,-12.43 36.2,-12.46zm-24.33,26.34c-4.5,6.43 -6.19,13.18 -6,21c0.33,0.66 0.66,1.32 1,2c16.83,0 33.66,0 51,0c0,-10.23 0,-20.46 0,-31c-7.42,-0.1 -7.42,-0.1 -15,-0.19c-2.32,-0.04 -2.32,-0.04 -4.68,-0.08c-9.9,-0.06 -18.99,0.83 -26.32,8.27z" fill="#000000" id="svg_2"/>
  <path d="m455.54,11.85c1.7,-0.01 1.7,-0.01 3.44,-0.02c1.22,0 2.45,0 3.71,0c1.26,-0.01 2.51,-0.01 3.81,-0.01c2.65,-0.01 5.31,-0.01 7.97,-0.01c3.41,0 6.82,-0.01 10.22,-0.03c3.25,-0.01 6.5,-0.01 9.75,-0.02c1.23,0 2.45,-0.01 3.72,-0.02c1.7,0.01 1.7,0.01 3.43,0.01c1.5,0 1.5,0 3.02,0c2.39,0.25 2.39,0.25 4.39,2.25c0.23,3.18 0.23,3.18 0.19,7c-0.01,1.25 -0.02,2.51 -0.02,3.81c-0.17,3.19 -0.17,3.19 -1.17,5.19c-0.69,0 -1.39,0 -2.1,0.01c-7.2,0.04 -14.41,0.11 -21.61,0.19c-2.69,0.03 -5.37,0.05 -8.06,0.07c-3.87,0.02 -7.73,0.06 -11.59,0.12c-1.2,0 -2.41,0 -3.65,0c-1.12,0.02 -2.24,0.04 -3.4,0.06c-0.98,0.01 -1.97,0.02 -2.98,0.03c-3.35,0.66 -4.55,1.83 -6.61,4.52c-0.62,4.73 -0.62,4.73 1.37,8.87c2.72,1.88 4.39,2.25 7.64,2.27c0.83,0 1.66,0.01 2.51,0.02c0.9,0 1.8,0.01 2.73,0.01c1.91,0.02 3.81,0.05 5.72,0.07c3.01,0.04 6.01,0.07 9.01,0.08c2.9,0.02 5.8,0.06 8.71,0.1c1.32,0 1.32,0 2.67,0c7.52,0.14 14.4,1.92 20.29,6.76c0.61,0.74 1.22,1.49 1.85,2.25c0.63,0.74 1.26,1.49 1.9,2.25c4.95,7.19 4.43,15.91 3.6,24.32c-1.55,6.34 -5.69,10.43 -11,14c-8.07,4.46 -15.91,4.54 -24.94,4.42c-1.42,0 -2.84,-0.01 -4.26,-0.01c-2.95,-0.01 -5.9,-0.03 -8.84,-0.06c-3.79,-0.04 -7.58,-0.06 -11.36,-0.07c-3.62,-0.01 -7.24,-0.03 -10.86,-0.05c-1.03,0 -1.03,0 -2.09,-0.01c-1.94,-0.01 -3.88,-0.03 -5.82,-0.05c-1.11,-0.01 -2.21,-0.02 -3.35,-0.03c-2.48,-0.14 -2.48,-0.14 -3.48,-1.14c-0.1,-2.5 -0.14,-4.95 -0.13,-7.44c0,-0.7 0,-1.39 -0.01,-2.11c0.01,-5.2 0.01,-5.2 1.14,-7.45c0.77,-0.01 1.53,-0.02 2.33,-0.02c7.23,-0.06 14.47,-0.13 21.71,-0.22c3.72,-0.05 7.45,-0.08 11.17,-0.11c3.59,-0.03 7.18,-0.07 10.77,-0.12c1.37,-0.01 2.74,-0.03 4.11,-0.03c1.92,-0.01 3.84,-0.04 5.76,-0.07c1.1,-0.01 2.19,-0.02 3.31,-0.04c3.18,-0.44 4.55,-1.18 6.84,-3.39c1.57,-4.14 0.72,-7.02 -1,-11c-2.29,-1.15 -3.6,-1.14 -6.14,-1.16c-1.28,-0.02 -1.28,-0.02 -2.59,-0.03c-0.93,-0.01 -1.86,-0.02 -2.81,-0.03c-1.96,-0.02 -3.92,-0.05 -5.89,-0.08c-3.09,-0.04 -6.18,-0.08 -9.28,-0.11c-2.98,-0.02 -5.97,-0.07 -8.96,-0.12c-0.91,0 -1.83,0 -2.77,-0.01c-8.26,-0.15 -14.99,-2.2 -21.56,-7.46c-6.05,-6.87 -7.47,-13.71 -7.32,-22.74c0.46,-4.7 1.91,-8.25 4.32,-12.26c0.53,-0.91 1.07,-1.82 1.62,-2.75c5.65,-5.36 13.21,-8.37 20.92,-8.4z" fill="#000000" id="svg_3"/>
  <path d="m727.73,11.84c0.99,-0.01 1.97,-0.02 2.99,-0.03c1.07,0 2.14,-0.01 3.24,-0.01c1.1,-0.01 2.21,-0.01 3.34,-0.02c2.35,-0.01 4.69,-0.02 7.03,-0.02c3.56,-0.01 7.11,-0.04 10.67,-0.07c2.28,-0.01 4.56,-0.01 6.84,-0.02c1.05,-0.01 2.1,-0.02 3.19,-0.03c10.93,0.03 19.7,2.01 27.97,9.36c0.86,0.7 1.73,1.4 2.62,2.13c8.1,9.8 9.55,19.91 9.56,32.18c0.02,0.89 0.03,1.78 0.04,2.69c0.03,11.79 -2.2,22.95 -10.47,31.81c-9.73,8.93 -20.39,10.5 -33.18,10.49c-1.06,0.01 -2.12,0.01 -3.22,0.01c-2.23,0.01 -4.46,0.01 -6.69,0.01c-3.42,-0.01 -6.83,0.02 -10.25,0.04c-2.17,0 -4.35,0.01 -6.52,0c-1.02,0.01 -2.04,0.02 -3.09,0.03c-9.19,-0.06 -9.19,-0.06 -12.8,-3.39c-2.09,-4.1 -2.27,-7.61 -2.29,-12.17c-0.01,-0.71 -0.02,-1.41 -0.03,-2.13c-0.01,-2.32 -0.02,-4.63 -0.02,-6.94c-0.01,-1.62 -0.01,-3.24 -0.02,-4.85c-0.01,-3.38 -0.02,-6.76 -0.01,-10.15c0,-4.32 -0.03,-8.65 -0.07,-12.97c-0.02,-3.34 -0.02,-6.67 -0.02,-10.01c0,-1.59 -0.01,-3.18 -0.03,-4.78c-0.02,-2.23 -0.01,-4.46 0,-6.7c0,-1.26 -0.01,-2.53 -0.01,-3.84c0.59,-4.09 1.93,-6.26 4.5,-9.46c2.43,-1.21 4.01,-1.14 6.73,-1.16zm7.27,18.16c0,17.16 0,34.32 0,52c9.15,0.12 9.15,0.12 18.5,0.25c2.86,0.06 2.86,0.06 5.79,0.11c1.54,0.01 3.07,0.02 4.61,0.03c0.78,0.02 1.56,0.04 2.36,0.06c6.44,0.01 11.88,-1.68 16.58,-6.23c0.36,-0.57 0.72,-1.13 1.09,-1.72c0.38,-0.57 0.76,-1.13 1.16,-1.72c2.63,-5.16 2.13,-10.88 2.16,-16.53c0.02,-0.96 0.04,-1.93 0.06,-2.92c0.03,-6.36 -0.17,-12.87 -4.7,-17.85c-5.86,-5.1 -10.04,-5.77 -17.54,-5.67c-0.76,0 -1.52,0 -2.31,0c-2.84,0.01 -5.68,0.04 -8.51,0.07c-6.36,0.04 -12.71,0.08 -19.25,0.12z" fill="#000000" id="svg_4"/>
  <path d="m886.79,10.8c1.12,-0.01 1.12,-0.01 2.26,-0.02c1.58,-0.01 3.15,-0.01 4.73,-0.02c2.38,-0.01 4.76,-0.04 7.14,-0.07c14.22,-0.1 23.19,2.08 33.83,11.94c8.27,8.62 8.92,19.73 8.82,31.07c-0.01,2.23 0.02,4.47 0.06,6.7c0.07,11.76 -2.2,22.05 -10.61,30.85c-7.99,6.92 -16.45,10.07 -27.01,10.05c-0.74,0.01 -1.49,0.01 -2.25,0.02c-1.57,0 -3.13,0 -4.7,0c-2.36,0 -4.72,0.02 -7.08,0.04c-12.17,0.06 -22.45,-1.2 -31.98,-9.36c-9.63,-10.26 -11.2,-19.92 -11.24,-33.64c-0.01,-2.02 -0.04,-4.04 -0.08,-6.06c-0.05,-12.72 2.13,-22.56 10.95,-32.05c7.8,-7.23 16.76,-9.39 27.16,-9.45zm-13.79,21.2c0,0.66 0,1.32 0,2c-0.66,0 -1.32,0 -2,0c-6.62,10.46 -5.87,24.11 -4,36c1.76,5.39 5.32,8.91 10,12c5.33,1.77 11.18,1.23 16.73,1.24c2.06,0.01 4.12,0.04 6.18,0.08c10.74,0.06 10.74,0.06 20.01,-4.79c7.48,-8.57 6.64,-19.71 6.08,-30.53c-0.62,-6.08 -2.28,-11.83 -7,-16c-4.95,-2.46 -8.57,-3.38 -14.19,-3.4c-0.66,0 -1.31,0 -1.99,0c-1.39,-0.01 -2.77,0 -4.16,0.01c-2.09,0.02 -4.19,0 -6.28,-0.02c-7.06,-0.01 -12.97,0.29 -19.38,3.41z" fill="#000000" id="svg_5"/>
  <path d="m622.44,11.81c0.69,-0.01 1.39,-0.02 2.1,-0.04c1.82,0 3.65,0.11 5.46,0.23c2.46,2.45 2.25,3.1 2.26,6.47c0,0.93 0.01,1.86 0.02,2.82c0,1 0,2.01 0,3.05c0.02,2.14 0.04,4.27 0.06,6.41c0.02,3.36 0.04,6.73 0.04,10.1c0.01,3.24 0.05,6.49 0.08,9.74c0,0.99 -0.01,1.99 -0.01,3.01c0.1,7.32 1.31,14.39 6.04,20.24c8.53,8.03 19.56,7.67 30.58,7.85c1.45,0.03 2.9,0.06 4.35,0.1c3.53,0.08 7.06,0.15 10.58,0.21c0,-0.86 0,-1.73 0,-2.62c-0.02,-8.1 -0.04,-16.21 -0.05,-24.32c0,-4.17 -0.01,-8.34 -0.02,-12.51c-0.01,-4.02 -0.02,-8.04 -0.02,-12.06c0,-1.53 -0.01,-3.07 -0.01,-4.61c-0.01,-2.14 -0.01,-4.29 -0.01,-6.43c0,-1.23 -0.01,-2.45 -0.01,-3.71c0.12,-2.74 0.12,-2.74 1.12,-3.74c2.49,-0.13 4.95,-0.19 7.44,-0.19c0.69,-0.01 1.39,-0.02 2.1,-0.04c1.82,0 3.65,0.11 5.46,0.23c2.47,2.46 2.24,3.85 2.27,7.22c0,0.72 0,1.45 -0.01,2.19c0,0.77 0.01,1.53 0.01,2.32c0.01,2.53 0,5.07 0,7.6c0,1.76 0,3.52 0,5.28c0.01,3.69 0,7.38 -0.01,11.07c-0.01,4.73 0,9.46 0.01,14.19c0.01,3.64 0.01,7.27 0,10.9c0,1.75 0,3.49 0.01,5.24c0,2.43 -0.01,4.87 -0.02,7.31c0.01,0.72 0.01,1.45 0.01,2.19c-0.03,3.65 -0.18,6.43 -2.27,9.49c-4.44,3.78 -9.07,3.45 -14.62,3.43c-0.93,0.01 -1.87,0.01 -2.84,0.02c-1.98,0 -3.96,0 -5.94,-0.01c-2.99,0 -5.98,0.02 -8.97,0.06c-16.17,0.06 -30.29,-1.42 -42.43,-13.26c-9.78,-10.83 -11.36,-22.58 -11.33,-36.61c0,-1.61 0,-1.61 0,-3.26c0,-2.26 0,-4.52 0,-6.78c0.01,-3.48 0,-6.95 0,-10.43c0,-2.2 0,-4.39 0,-6.59c0,-1.05 0,-2.09 -0.01,-3.17c0.01,-0.96 0.01,-1.91 0.01,-2.9c0,-1.27 0,-1.27 0.01,-2.57c0.3,-4.57 5.01,-3.12 8.56,-3.12z" fill="#000000" id="svg_6"/>
  <path d="m527.37,11.85c1.15,0 1.15,0 2.33,0c0.81,0 1.61,-0.01 2.45,-0.01c2.67,-0.01 5.35,-0.01 8.03,-0.01c1.86,0 3.71,-0.01 5.57,-0.01c3.89,-0.01 7.78,-0.01 11.68,-0.01c5,0 9.99,-0.01 14.99,-0.03c3.83,-0.01 7.67,-0.01 11.5,-0.01c1.84,0 3.69,-0.01 5.53,-0.02c2.57,-0.01 5.15,0 7.72,0c0.77,0 1.53,-0.01 2.33,-0.01c5.27,0.03 5.27,0.03 7.5,2.26c0.27,2.68 0.27,2.68 0.25,5.87c0.01,1.58 0.01,1.58 0.02,3.18c-0.27,2.95 -0.27,2.95 -2.27,6.95c-10.56,0 -21.12,0 -32,0c0.02,4.71 0.05,9.43 0.07,14.29c0.01,2.99 0.02,5.98 0.03,8.97c0.01,4.75 0.02,9.49 0.05,14.24c0.02,3.82 0.04,7.65 0.04,11.47c0,1.46 0.01,2.92 0.02,4.38c0.02,2.05 0.02,4.09 0.02,6.13c0,1.17 0.01,2.33 0.01,3.53c-0.23,2.89 -0.73,4.54 -2.24,6.99c-2.48,0.02 -4.96,0.04 -7.44,0.06c-0.7,0.01 -1.41,0.02 -2.14,0.02c-1.81,0.01 -3.61,-0.03 -5.42,-0.08c-1.85,-1.85 -1.17,-4.88 -1.2,-7.36c-0.01,-0.66 -0.02,-1.33 -0.03,-2.01c-0.04,-2.2 -0.06,-4.4 -0.09,-6.61c-0.02,-1.52 -0.04,-3.04 -0.06,-4.57c-0.05,-4.01 -0.1,-8.03 -0.15,-12.04c-0.05,-4.1 -0.11,-8.19 -0.16,-12.29c-0.11,-8.04 -0.21,-16.08 -0.31,-24.12c-0.96,-0.03 -1.93,-0.05 -2.92,-0.08c-3.57,-0.09 -7.13,-0.19 -10.7,-0.3c-1.54,-0.04 -3.09,-0.08 -4.63,-0.12c-2.22,-0.06 -4.44,-0.12 -6.65,-0.19c-0.7,-0.01 -1.39,-0.03 -2.11,-0.05c-4.88,-0.15 -4.88,-0.15 -5.99,-1.26c-0.1,-2.68 -0.14,-5.33 -0.12,-8c-0.01,-0.75 -0.01,-1.5 -0.02,-2.28c0.02,-6.43 0.07,-6.83 6.51,-6.87z" fill="#000000" id="svg_7"/>
  <path d="m103.19,11.77c1.26,0.01 2.52,0.03 3.81,0.04c1.26,0.01 2.52,0.02 3.82,0.02c3.18,0.17 3.18,0.17 5.18,1.17c0,22.77 0,45.54 0,69c19.99,-0.08 19.99,-0.08 39.97,-0.18c2.5,-0.01 5,-0.01 7.49,-0.01c1.31,-0.02 2.62,-0.03 3.96,-0.04c1.24,0 2.48,0 3.76,0c1.08,0 2.15,-0.01 3.27,-0.01c2.55,0.24 2.55,0.24 4.55,2.24c0.15,2.58 0.19,5.05 0.13,7.63c-0.01,0.7 -0.02,1.41 -0.03,2.14c-0.02,1.74 -0.06,3.49 -0.1,5.23c-2.94,1.47 -5.56,1.15 -8.85,1.18c-0.7,0 -1.4,0.01 -2.13,0.02c-2.34,0.02 -4.67,0.03 -7.01,0.04c-1.19,0 -1.19,0 -2.41,0.01c-4.22,0.02 -8.44,0.04 -12.66,0.05c-4.36,0.01 -8.72,0.04 -13.08,0.08c-3.35,0.03 -6.7,0.04 -10.05,0.04c-1.61,0 -3.21,0.02 -4.82,0.03c-2.25,0.03 -4.5,0.03 -6.75,0.02c-1.92,0.01 -1.92,0.01 -3.88,0.02c-3.95,-0.58 -5.59,-1.66 -8.36,-4.49c-1.19,-3.58 -1.15,-6.84 -1.14,-10.56c-0.01,-0.77 -0.01,-1.54 -0.01,-2.33c-0.01,-2.54 -0.01,-5.07 -0.02,-7.61c0,-1.77 0,-3.53 -0.01,-5.29c0,-3.69 0,-7.39 0,-11.08c0,-4.74 -0.02,-9.48 -0.03,-14.22c-0.01,-3.64 -0.02,-7.28 -0.02,-10.91c0,-1.75 0,-3.5 -0.01,-5.25c-0.01,-2.44 -0.01,-4.88 0,-7.32c-0.01,-0.72 -0.01,-1.45 -0.02,-2.2c0.03,-4.88 0.07,-7.07 5.45,-7.46z" fill="#000000" id="svg_8"/>
  <path d="m21.03,11.76c0.71,0 1.42,0 2.15,-0.01c2.35,0 4.7,0.01 7.05,0.02c1.63,0 3.26,0 4.89,0c3.42,0.01 6.83,0.01 10.24,0.03c4.39,0.01 8.78,0.02 13.16,0.02c3.37,0 6.73,0 10.1,0.01c1.61,0 3.23,0.01 4.85,0.01c2.26,0 4.51,0.01 6.77,0.02c1.93,0 1.93,0 3.89,0.01c2.87,0.13 2.87,0.13 3.87,1.13c0.1,2.68 0.14,5.33 0.13,8c0,0.75 0.01,1.5 0.01,2.28c-0.01,5.6 -0.01,5.6 -1.14,6.72c-1.9,0.1 -3.8,0.12 -5.71,0.12c-1.22,0 -2.44,0 -3.7,0c-1.34,-0.01 -2.68,-0.01 -4.03,-0.02c-1.36,0 -2.73,0 -4.1,0c-3.6,-0.01 -7.2,-0.02 -10.8,-0.03c-3.67,-0.01 -7.35,-0.01 -11.02,-0.02c-7.21,-0.01 -14.42,-0.03 -21.64,-0.05c0.01,0.87 0.01,1.73 0.01,2.62c0.02,8.1 0.04,16.21 0.05,24.32c0,4.17 0.01,8.34 0.02,12.51c0.01,4.02 0.02,8.04 0.02,12.06c0,1.53 0,3.07 0.01,4.61c0.01,2.14 0.01,4.29 0.01,6.44c0,1.22 0,2.44 0,3.7c-0.12,2.74 -0.12,2.74 -1.12,3.74c-2.69,0.08 -5.36,0.1 -8.06,0.07c-0.76,-0.01 -1.52,-0.01 -2.3,-0.02c-1.88,-0.01 -3.76,-0.03 -5.64,-0.05c-1.5,-3 -1.15,-6.1 -1.16,-9.4c0,-0.76 -0.01,-1.52 -0.01,-2.31c-0.02,-2.53 -0.02,-5.06 -0.03,-7.59c0,-1.75 -0.01,-3.51 -0.02,-5.27c-0.01,-3.68 -0.01,-7.37 -0.02,-11.06c0,-4.72 -0.03,-9.44 -0.05,-14.16c-0.02,-3.63 -0.03,-7.26 -0.03,-10.89c0,-1.74 -0.01,-3.48 -0.02,-5.22c-0.02,-2.44 -0.02,-4.87 -0.01,-7.31c-0.01,-0.72 -0.02,-1.43 -0.03,-2.17c0.04,-4.38 0.68,-7.14 3.38,-10.62c3.72,-2.47 5.59,-2.24 10.03,-2.24z" fill="#000000" id="svg_9"/>
  <path d="m819,12c2.46,-0.05 4.92,-0.09 7.38,-0.13c1.04,-0.02 1.04,-0.02 2.11,-0.05c1.84,-0.01 3.68,0.08 5.51,0.18c2.53,2.53 2.24,4.11 2.27,7.56c0,0.77 -0.01,1.55 -0.01,2.35c0,0.81 0.01,1.63 0.01,2.47c0.01,2.71 0,5.41 0,8.12c0,1.88 0,3.75 0,5.63c0,3.93 0,7.87 -0.01,11.8c-0.01,5.05 0,10.1 0.01,15.15c0.01,3.88 0,7.75 0,11.62c0,1.87 0,3.73 0,5.59c0.01,2.6 0,5.2 -0.01,7.8c0,0.78 0.01,1.55 0.01,2.35c-0.04,5.33 -0.04,5.33 -2.27,7.56c-2.56,0.17 -5,0.23 -7.56,0.19c-0.7,0 -1.4,0 -2.12,0c-5.18,-0.05 -5.18,-0.05 -6.32,-1.19c-0.1,-2.64 -0.14,-5.25 -0.13,-7.88c0,-0.83 0,-1.66 0,-2.51c-0.01,-2.74 -0.01,-5.49 0,-8.23c0,-1.9 0,-3.8 -0.01,-5.7c0,-3.99 0,-7.97 0.01,-11.96c0.01,-5.12 0,-10.24 0,-15.36c-0.01,-3.92 -0.01,-7.85 0,-11.77c0,-1.89 0,-3.78 -0.01,-5.67c0,-2.63 0.01,-5.27 0.01,-7.91c0,-0.78 0,-1.57 -0.01,-2.38c0.03,-5.4 0.03,-5.4 1.14,-7.63z" fill="#000000" id="svg_10"/>
  <path d="m256.85,155.9c2.05,0.03 4.1,0.07 6.15,0.1c1.48,2.95 1.06,5.74 1,9c0.7,-0.01 1.4,-0.03 2.12,-0.04c1.36,-0.01 1.36,-0.01 2.76,-0.02c1.35,-0.02 1.35,-0.02 2.74,-0.04c2.38,0.1 2.38,0.1 4.38,1.1c0.1,6.15 0.1,6.15 0,8c-1,1 -1,1 -3.5,1.1c-1.01,-0.02 -2.02,-0.03 -3.06,-0.04c-1.01,-0.01 -2.02,-0.02 -3.07,-0.03c-0.78,-0.01 -1.56,-0.02 -2.37,-0.03c0.01,0.66 0.01,1.32 0.02,2c0.02,2.98 0.03,5.96 0.04,8.94c0.01,1.04 0.02,2.08 0.03,3.15c0,0.99 0.01,1.98 0.01,3c0.01,0.91 0.01,1.83 0.02,2.77c-0.12,2.14 -0.12,2.14 -1.12,3.14c-2.67,0.14 -5.32,0.04 -8,0c-1.22,-2.46 -1.11,-4.05 -1.1,-6.79c0.01,-0.85 0.01,-1.7 0.01,-2.57c0.01,-1.08 0.02,-2.16 0.03,-3.27c0.02,-3.42 0.04,-6.84 0.06,-10.37c-9.24,0 -18.48,0 -28,0c-0.29,7.19 -0.29,7.19 -0.57,14.39c-0.03,0.89 -0.07,1.78 -0.11,2.7c-0.06,1.37 -0.06,1.37 -0.11,2.77c-0.21,2.14 -0.21,2.14 -1.21,3.14c-5.53,0.23 -5.53,0.23 -8,-1c-0.11,-4.06 -0.18,-8.13 -0.25,-12.19c-0.03,-1.15 -0.06,-2.3 -0.1,-3.49c-0.01,-1.11 -0.03,-2.22 -0.04,-3.37c-0.02,-1.02 -0.04,-2.04 -0.06,-3.09c0.59,-3.72 1.75,-5.27 4.45,-7.86c4.29,-1.97 8.04,-2.24 12.71,-2.2c1.25,0.01 2.49,0.02 3.77,0.02c1.93,0.03 1.93,0.03 3.9,0.05c1.31,0.01 2.61,0.02 3.96,0.03c3.22,0.02 6.44,0.06 9.66,0.1c-0.02,-1.3 -0.04,-2.6 -0.06,-3.94c-0.02,-1.35 -0.01,-2.71 0.06,-4.06c1,-1 1,-1 2.85,-1.1z" fill="#000000" id="svg_11"/>
  <path d="m395.14,164.76c2.15,-0.01 4.31,-0.04 6.46,-0.07c1.38,-0.01 2.76,-0.01 4.14,-0.02c1.87,-0.01 1.87,-0.01 3.78,-0.03c4.72,0.49 7.96,1.83 11.32,5.22c1.41,2.61 1.6,4.49 1.71,7.46c0.06,1.51 0.06,1.51 0.12,3.06c0.02,1.05 0.05,2.1 0.08,3.18c0.04,1.06 0.08,2.11 0.13,3.2c0.27,7.8 0.27,7.8 -0.88,11.24c-6.75,0.13 -6.75,0.13 -9,-1c-0.5,-10.39 -0.5,-10.39 -1,-21c-1.98,-0.33 -3.96,-0.66 -6,-1c0.01,0.99 0.01,0.99 0.01,2c0.03,2.98 0.04,5.96 0.05,8.94c0.01,1.04 0.02,2.08 0.03,3.15c0,1.49 0,1.49 0.01,3c0,1.37 0,1.37 0.01,2.78c-0.11,2.13 -0.11,2.13 -1.11,3.13c-2.94,0.19 -2.94,0.19 -6,0c-2.44,-2.44 -2.29,-3.21 -2.42,-6.57c-0.03,-0.9 -0.07,-1.79 -0.11,-2.71c-0.03,-0.94 -0.06,-1.88 -0.1,-2.84c-0.04,-0.95 -0.07,-1.89 -0.11,-2.87c-0.1,-2.33 -0.18,-4.67 -0.26,-7.01c-2.97,-0.33 -5.94,-0.66 -9,-1c0.02,1.49 0.05,2.99 0.07,4.52c0.02,1.95 0.04,3.9 0.05,5.86c0.02,0.98 0.04,1.96 0.05,2.98c0.01,0.94 0.02,1.88 0.02,2.85c0.01,0.87 0.02,1.74 0.04,2.64c-0.23,2.15 -0.23,2.15 -2.23,4.15c-3,0.25 -3,0.25 -6,0c-2.72,-2.72 -2.26,-4.2 -2.27,-8c0,-1.19 0,-2.39 0,-3.63c0,-1.25 0.01,-2.51 0.02,-3.81c-0.01,-1.25 -0.02,-2.5 -0.02,-3.8c0,-1.2 0,-2.4 0,-3.63c0.01,-1.1 0.01,-2.21 0.01,-3.34c0.26,-2.79 0.26,-2.79 2.26,-5.79c5.18,-1.73 10.72,-1.23 16.14,-1.24z" fill="#000000" id="svg_12"/>
  <path d="m634.16,164.68c2.13,0 4.27,-0.02 6.4,-0.05c1.37,0 2.74,0 4.11,0c1.24,0 2.48,0 3.75,-0.01c4.23,0.44 6.82,1.4 10.58,3.38c2.24,3.36 2.3,4.73 2.45,8.69c0.04,1.11 0.08,2.22 0.13,3.36c0.03,1.16 0.07,2.31 0.11,3.51c0.04,1.16 0.09,2.32 0.14,3.52c0.3,8.64 0.3,8.64 -0.83,10.92c-3.38,0.18 -3.38,0.18 -7,0c-2.14,-3.21 -2.24,-4 -2.2,-7.67c0.01,-0.89 0.02,-1.79 0.02,-2.71c0.02,-0.93 0.04,-1.85 0.05,-2.81c0.01,-0.94 0.02,-1.88 0.03,-2.85c0.02,-2.32 0.06,-4.64 0.1,-6.96c-2.31,0 -4.62,0 -7,0c0.01,0.99 0.01,0.99 0.01,2c0.02,2.98 0.04,5.96 0.05,8.93c0.01,1.04 0.02,2.09 0.03,3.16c0,1.48 0,1.48 0.01,3c0,1.37 0,1.37 0.01,2.77c-0.11,2.14 -0.11,2.14 -1.11,3.14c-2.94,0.18 -2.94,0.18 -6,0c-2,-2 -2,-2 -2.23,-4.16c0.01,-0.87 0.02,-1.74 0.03,-2.63c0.01,-0.94 0.02,-1.89 0.02,-2.85c0.02,-0.99 0.04,-1.97 0.05,-2.99c0.01,-0.99 0.02,-1.98 0.03,-3.01c0.02,-2.45 0.06,-4.91 0.1,-7.36c-3.3,0 -6.6,0 -10,0c0.01,1.57 0.02,3.15 0.03,4.77c0.01,2.06 0.02,4.11 0.03,6.16c0.01,1.04 0.02,2.09 0.03,3.16c0,0.99 0,1.98 0.01,3c0,0.91 0.01,1.83 0.01,2.77c-0.11,2.14 -0.11,2.14 -1.11,3.14c-2.33,0.04 -4.67,0.04 -7,0c-2.53,-3.82 -2.27,-7.73 -2.19,-12.13c0.01,-0.76 0.02,-1.51 0.03,-2.29c0.04,-2.2 0.09,-4.39 0.16,-6.58c0.03,-1.08 0.06,-2.16 0.09,-3.27c0.29,-4.94 0.29,-4.94 0.91,-6.73c4.95,-3.37 11.41,-2.34 17.16,-2.32z" fill="#000000" id="svg_13"/>
  <path d="m559.63,165.06c0.83,0.03 1.67,0.06 2.52,0.08c5.14,0.29 8.15,0.98 11.86,4.86c1.5,3 1.12,5.77 1.13,9.12c0,0.71 0,1.41 0,2.13c0,1.49 0,2.97 0,4.46c-0.01,2.28 0,4.56 0,6.83c0,1.45 0,2.89 0,4.33c0,1.32 0,2.64 -0.01,3.99c-0.12,3.14 -0.12,3.14 -1.12,5.14c-7.92,0 -15.84,0 -24.01,0c0,-1.32 0,-2.64 0,-4c2.84,-1.42 5.48,-1.35 8.63,-1.56c1.19,-0.09 2.38,-0.17 3.6,-0.26c0.92,-0.06 1.83,-0.12 2.78,-0.18c0,-0.99 0,-1.98 0,-3c-0.34,0.33 -0.67,0.66 -1,1c-2.77,0.15 -5.49,0.23 -8.26,0.25c-0.76,0.02 -1.52,0.04 -2.31,0.06c-4.62,0.03 -7.74,-0.23 -11.44,-3.31c-4.17,-6.39 -3.46,-14.85 -2,-22c1.51,-3.64 2.67,-4.81 6.09,-6.82c4.5,-1.67 8.82,-1.43 13.54,-1.12zm-9.63,9.94c-1.25,2.5 -1.13,4.27 -1.12,7.06c0,0.9 -0.01,1.8 -0.01,2.72c-0.11,2.19 -0.11,2.19 1.13,3.22c2.31,0.21 4.63,0.37 6.94,0.5c6.84,0.39 6.84,0.39 9.07,1.5c0.02,-2.31 0.04,-4.63 0.06,-6.94c0.01,-1.29 0.02,-2.58 0.03,-3.9c0.27,-3.03 0.27,-3.03 -1.09,-4.16c-2.54,-0.08 -5.04,-0.09 -7.57,-0.06c-0.71,0 -1.42,0 -2.15,0.01c-1.76,0.01 -3.52,0.03 -5.29,0.05z" fill="#000000" id="svg_14"/>
  <path d="m526,165c3.98,0.94 7.56,2.61 10,6c1.19,3.59 1.2,7.11 1.25,10.88c0.03,1.19 0.05,2.38 0.08,3.61c-0.46,4.88 -1.72,8.07 -5.4,11.36c-4.29,1.69 -8.29,1.62 -12.87,1.59c-1.32,0.03 -1.32,0.03 -2.67,0.06c-5.76,-0.01 -8.99,-0.71 -13.39,-4.5c-1.86,-3.72 -1.57,-7.94 -1,-12c1.67,-3.13 3.79,-5.39 7,-7c-0.23,-1.09 -0.45,-2.19 -0.69,-3.31c-0.31,-3.69 -0.31,-3.69 0.72,-5.4c4.59,-3.01 11.65,-1.71 16.97,-1.29zm-14,20c-0.33,0.99 -0.66,1.98 -1,3c5.28,0 10.56,0 16,0c0,-0.99 0,-1.98 0,-3c-4.95,0 -9.9,0 -15,0z" fill="#000000" id="svg_15"/>
  <path d="m451.37,165.35c3.26,0.83 5.64,1.9 7.63,4.65c1.27,3.81 1.22,7.41 1.25,11.38c0.02,0.75 0.04,1.51 0.06,2.29c0.03,4.59 -0.24,7.67 -3.31,11.33c-4.41,3.77 -8.98,3.45 -14.5,3.38c-1.26,0.01 -1.26,0.01 -2.55,0.03c-4.8,-0.02 -8.06,-0.29 -11.95,-3.41c-2.34,-2.9 -2.97,-4.72 -3.44,-8.44c0.52,-4.24 1.67,-6.33 4.44,-9.56c2.25,-0.87 2.25,-0.87 4,-1c-0.33,-0.66 -0.66,-1.32 -1,-2c-0.25,-3.5 -0.25,-3.5 0,-7c5.42,-3.61 13.06,-2.57 19.37,-1.65zm-9.5,19.15c-1.92,0.14 -1.92,0.14 -3.88,0.28c-1.48,0.11 -1.48,0.11 -2.99,0.22c0,0.99 0,1.98 0,3c4.95,0 9.9,0 15,0c0.33,-1.32 0.66,-2.64 1,-4c-3.05,0 -6.08,0.28 -9.13,0.5z" fill="#000000" id="svg_16"/>
  <path d="m35.6,46.87c1.47,0 1.47,0 2.96,-0.01c1.07,0 2.13,0 3.23,0.01c1.62,0 1.62,0 3.28,-0.01c2.3,0 4.59,0 6.89,0.01c3.53,0 7.06,0 10.59,-0.01c2.22,0 4.45,0 6.67,0.01c1.07,-0.01 2.13,-0.01 3.23,-0.01c0.97,0 1.95,0.01 2.96,0.01c0.86,0 1.73,0 2.62,0c1.97,0.13 1.97,0.13 2.97,1.13c0.1,2.68 0.14,5.32 0.13,8c0.01,1.12 0.01,1.12 0.01,2.27c-0.01,5.6 -0.01,5.6 -1.14,6.73c-1.53,0.1 -3.06,0.13 -4.59,0.13c-1.47,0 -1.47,0 -2.96,0.01c-1.07,0 -2.13,-0.01 -3.23,-0.01c-1.62,0 -1.62,0 -3.28,0.01c-2.3,0 -4.59,-0.01 -6.89,-0.01c-3.53,-0.01 -7.06,0 -10.59,0.01c-2.22,0 -4.45,-0.01 -6.67,-0.01c-1.07,0 -2.13,0.01 -3.23,0.01c-0.97,0 -1.95,-0.01 -2.96,-0.01c-0.87,0 -1.73,0 -2.62,0c-1.98,-0.13 -1.98,-0.13 -2.98,-1.13c-0.1,-2.68 -0.13,-5.32 -0.12,-8c0,-0.75 -0.01,-1.5 -0.01,-2.27c0.01,-6.85 0.01,-6.85 5.73,-6.86z" fill="#000000" id="svg_17"/>
  <path d="m610,167c3.03,3.18 3.88,5.16 4.5,9.5c-0.6,4.23 -1.71,6.27 -4.5,9.5c-3.25,1.88 -3.25,1.88 -6,3c0.02,1.3 0.04,2.6 0.06,3.94c0.02,1.35 0.01,2.71 -0.06,4.06c-2.02,2.02 -5.93,1.23 -8.69,1.25c-0.71,0.02 -1.41,0.04 -2.14,0.06c-4.8,0.04 -8,-0.71 -12.17,-3.31c-4.05,-5.41 -3.13,-13.12 -2.45,-19.47c0.55,-3.08 1.44,-5.13 3.45,-7.53c7.28,-4.85 20.05,-4.45 28,-1zm-21,8c-0.33,1.32 -0.66,2.64 -1,4c7.92,-0.49 7.92,-0.49 16,-1c0,-0.99 0,-1.98 0,-3c-4.95,0 -9.9,0 -15,0z" fill="#000000" id="svg_18"/>
  <path d="m195.25,165.63c0.96,-0.04 1.91,-0.07 2.89,-0.11c7.11,-0.09 7.11,-0.09 10.97,2.88c3.21,4.42 3.17,8.03 3.27,13.36c0.05,1.19 0.05,1.19 0.11,2.42c0.06,4.2 -0.15,6.98 -2.83,10.34c-4.59,4.28 -9.1,3.7 -15.04,3.74c-0.85,0.02 -1.7,0.04 -2.57,0.06c-4.86,0.03 -8.11,-0.15 -12.05,-3.31c-2.75,-3.12 -3.23,-5.47 -3,-9.5c0.67,-4.52 2.37,-6.67 6,-9.5c0.66,-0.34 1.32,-0.67 2,-1c-0.33,-0.34 -0.66,-0.67 -1,-1c-0.13,-3.5 -0.13,-3.5 0,-7c2.37,-2.37 8.08,-1.33 11.25,-1.38zm-7.25,9.38c0,0.33 0,0.66 0,1c1.98,0 3.96,0 6,0c0,-0.34 0,-0.67 0,-1c-1.98,0 -3.96,0 -6,0zm14,8c-0.33,0.32 -0.66,0.66 -1,1c-2.35,0.23 -4.71,0.41 -7.06,0.56c-1.29,0.08 -2.58,0.17 -3.91,0.25c-1,0.06 -2,0.12 -3.03,0.19c-0.33,0.98 -0.66,1.98 -1,3c8.87,1.73 8.87,1.73 17,-1c-0.33,-1.33 -0.66,-2.65 -1,-4z" fill="#000000" id="svg_19"/>
  <path d="m698.56,169c2.09,4.36 2.34,8.26 1.44,13c-2.78,3.81 -5.52,5.59 -10,7c0.33,0.33 0.66,0.66 1,1c0.12,3.5 0.12,3.5 0,7c-2.02,2.02 -5.93,1.23 -8.69,1.25c-0.71,0.02 -1.42,0.04 -2.15,0.06c-4.78,0.04 -8.03,-0.66 -12.16,-3.31c-2.82,-4.23 -2.41,-7.84 -2.44,-12.81c-0.03,-0.89 -0.07,-1.78 -0.1,-2.7c-0.04,-4.37 0.07,-7.54 2.81,-11.06c7.05,-6.28 22.95,-5.16 30.29,0.57zm-23.56,6c0,1.32 0,2.64 0,4c7.92,-0.49 7.92,-0.49 16,-1c0,-0.99 0,-1.98 0,-3c-5.28,0 -10.56,0 -16,0z" fill="#000000" id="svg_20"/>
  <path d="m320,166c1.39,2.79 1.26,4.92 1,8c-0.99,0.66 -1.98,1.32 -3,2c0.8,0.62 1.61,1.24 2.44,1.88c2.55,2.11 3.38,2.87 3.83,6.07c0.19,4.26 0.17,7.15 -2.58,10.55c-4.96,4.61 -10.34,3.68 -16.75,3.69c-1.53,0.02 -1.53,0.02 -3.09,0.03c-0.97,0.01 -1.95,0.01 -2.95,0.01c-0.89,0 -1.78,0.01 -2.7,0.01c-2.2,-0.24 -2.2,-0.24 -4.2,-2.24c-0.25,-3 -0.25,-3 0,-6c2,-2 2,-2 4.06,-2.23c0.83,0.01 1.66,0.02 2.51,0.03c0.9,0.01 1.79,0.02 2.72,0.02c1.4,0.03 1.4,0.03 2.83,0.06c0.95,0 1.89,0.01 2.87,0.02c2.34,0.03 4.67,0.06 7.01,0.1c0,-0.99 0,-1.98 0,-3c-1.1,0.05 -2.19,0.09 -3.32,0.14c-1.46,0.04 -2.91,0.07 -4.37,0.11c-0.72,0.03 -1.44,0.07 -2.18,0.1c-3.91,0.07 -5.7,-0.07 -9.09,-2.24c-3.11,-3.22 -3.44,-5.58 -3.39,-10.07c0.6,-3.53 2.56,-5 5.35,-7.04c7.28,-1.93 15.67,-1.59 23,0z" fill="#000000" id="svg_21"/>
  <path d="m729.98,166.25c3.29,1.22 4.98,2.95 7.02,5.75c2.2,5.13 2.31,9.78 2.25,15.25c0.02,1.23 0.02,1.23 0.03,2.47c-0.02,6.03 -0.02,6.03 -2.28,8.28c-3,0.25 -3,0.25 -6,0c-2.39,-2.39 -2.27,-3.04 -2.38,-6.31c-0.05,-1.27 -0.05,-1.27 -0.1,-2.57c-0.03,-0.88 -0.05,-1.77 -0.08,-2.68c-0.06,-1.75 -0.12,-3.5 -0.19,-5.25c-0.02,-0.78 -0.05,-1.56 -0.07,-2.36c0.02,-1.84 0.02,-1.84 -1.18,-2.83c-2.35,-0.07 -4.7,-0.08 -7.06,-0.06c-1.29,0.01 -2.58,0.02 -3.91,0.03c-1,0.01 -2,0.02 -3.03,0.03c-0.02,0.63 -0.05,1.27 -0.07,1.92c-0.12,2.84 -0.24,5.68 -0.36,8.52c-0.04,0.99 -0.08,1.99 -0.12,3.01c-0.05,0.95 -0.09,1.89 -0.13,2.86c-0.06,1.31 -0.06,1.31 -0.11,2.65c-0.21,2.04 -0.21,2.04 -1.21,3.04c-3.5,0.13 -3.5,0.13 -7,0c-2.62,-2.62 -1.27,-9.74 -1.29,-13.3c-0.02,-2.06 -0.06,-4.11 -0.11,-6.17c-0.01,-1.3 -0.01,-2.59 -0.02,-3.92c-0.02,-1.2 -0.03,-2.39 -0.05,-3.62c0.47,-2.99 0.47,-2.99 2.29,-4.88c6.61,-3.36 18.14,-1.53 25.16,0.14z" fill="#000000" id="svg_22"/>
  <path d="m489.87,166.23c3.53,1.27 5.55,3.05 8.13,5.77c1.48,4.44 1.45,8.9 1.69,13.56c0.06,0.97 0.12,1.94 0.18,2.94c0.05,0.93 0.09,1.86 0.14,2.81c0.07,1.28 0.07,1.28 0.14,2.58c-0.15,2.11 -0.15,2.11 -2.15,4.11c-3.56,0.18 -3.56,0.18 -7,0c-1.54,-1.55 -1.18,-3.04 -1.25,-5.19c-0.03,-0.84 -0.06,-1.69 -0.1,-2.56c-0.06,-1.79 -0.12,-3.58 -0.17,-5.37c-0.05,-1.27 -0.05,-1.27 -0.1,-2.57c-0.03,-0.78 -0.05,-1.56 -0.08,-2.36c-0.14,-2.19 -0.14,-2.19 -2.3,-3.95c-2.37,-0.3 -4.75,-0.5 -7.13,-0.63c-1.28,-0.07 -2.56,-0.15 -3.88,-0.23c-0.99,-0.04 -1.97,-0.09 -2.99,-0.14c0,0.66 0.01,1.32 0.01,2c0.03,2.98 0.04,5.96 0.05,8.93c0.01,1.04 0.02,2.08 0.03,3.16c0,0.99 0,1.98 0.01,3c0,0.91 0.01,1.83 0.01,2.77c-0.11,2.14 -0.11,2.14 -1.11,3.14c-3.5,0.12 -3.5,0.12 -7,0c-2.62,-2.63 -1.28,-9.75 -1.3,-13.31c-0.01,-2.05 -0.06,-4.11 -0.1,-6.17c-0.01,-1.3 -0.02,-2.59 -0.03,-3.92c-0.01,-1.2 -0.03,-2.39 -0.04,-3.62c0.47,-2.98 0.47,-2.98 2.3,-4.87c6.57,-3.37 17.02,-1.5 24.04,0.12z" fill="#000000" id="svg_23"/>
  <path d="m335,156c6.15,-0.1 6.15,-0.1 8,0c2.05,2.05 1.7,6.3 2,9c1.24,-0.06 2.47,-0.12 3.75,-0.19c3.03,-0.01 4.07,0.08 6.75,1.69c0.5,0.49 0.99,0.99 1.5,1.5c-0.87,5.88 -0.87,5.88 -2,7c-1.85,0.07 -3.71,0.08 -5.56,0.06c-1.01,-0.01 -2.03,-0.02 -3.07,-0.02c-1.17,-0.02 -1.17,-0.02 -2.37,-0.04c0.01,0.94 0.01,0.94 0.02,1.9c0.02,2.82 0.03,5.65 0.04,8.48c0.01,0.98 0.02,1.96 0.03,2.98c0,1.41 0,1.41 0.01,2.85c0.01,1.3 0.01,1.3 0.01,2.64c-0.11,2.15 -0.11,2.15 -1.11,4.15c-2.64,0 -5.28,0 -8,0c-1.23,-2.45 -1.11,-4.05 -1.1,-6.79c0.01,-0.94 0.01,-1.88 0.01,-2.85c0.01,-0.99 0.02,-1.97 0.03,-2.98c0,-1 0.01,-1.99 0.01,-3.01c0.01,-2.46 0.03,-4.91 0.05,-7.37c-1.3,0.02 -2.6,0.04 -3.94,0.06c-1.35,0.02 -2.71,0.01 -4.06,-0.06c-1,-1 -1,-1 -1.25,-4.44c0.08,-1.17 0.16,-2.35 0.25,-3.56c3.44,-2.29 4.99,-2.18 9,-2c-0.02,-1.11 -0.04,-2.23 -0.06,-3.37c0.06,-3.63 0.06,-3.63 1.06,-5.63z" fill="#000000" id="svg_24"/>
  <path d="m752.85,155.9c2.05,0.03 4.1,0.07 6.15,0.1c1.13,5.62 1.13,5.62 0,9c0.91,-0.04 0.91,-0.04 1.83,-0.07c1.2,-0.03 1.2,-0.03 2.42,-0.06c0.79,-0.02 1.58,-0.04 2.39,-0.07c2.57,0.21 4.15,0.91 6.36,2.2c0.04,2.33 0.04,4.66 0,7c-1.74,1.74 -4.19,1.37 -6.56,1.56c-1.52,0.13 -1.52,0.13 -3.07,0.25c-1.17,0.09 -1.17,0.09 -2.37,0.19c0.03,1.25 0.05,2.5 0.07,3.79c0.02,1.66 0.04,3.31 0.06,4.96c0.02,1.24 0.02,1.24 0.05,2.5c0,0.8 0.01,1.6 0.02,2.42c0.01,0.73 0.02,1.47 0.03,2.22c-0.26,2.41 -1.04,4.02 -2.23,6.11c-2.87,0.12 -2.87,0.12 -6,0c-2,-2 -2,-2 -2.22,-4.16c0.01,-1.3 0.01,-1.3 0.03,-2.63c0,-0.94 0.01,-1.88 0.02,-2.85c0.01,-0.99 0.03,-1.97 0.05,-2.99c0.01,-0.99 0.02,-1.98 0.02,-3.01c0.03,-2.45 0.06,-4.91 0.1,-7.36c-2.97,0 -5.94,0 -9,0c-0.92,-3.68 -0.96,-5.17 0,-9c4.46,-0.5 4.46,-0.5 9,-1c-0.02,-1.3 -0.04,-2.6 -0.06,-3.94c-0.02,-1.35 -0.01,-2.71 0.06,-4.06c1,-1 1,-1 2.85,-1.1z" fill="#000000" id="svg_25"/>
  <path d="m282.94,164.88c3.06,0.13 3.06,0.13 5.06,1.13c0.03,4.39 0.05,8.79 0.06,13.18c0,1.5 0.01,3 0.02,4.49c0.01,2.15 0.02,4.3 0.02,6.45c0.01,1.29 0.01,2.58 0.02,3.92c-0.12,2.96 -0.12,2.96 -1.12,3.96c-3.5,0.12 -3.5,0.12 -7,0c-1.91,-1.91 -1.13,-5.32 -1.13,-7.85c0,-0.68 0,-1.37 0,-2.07c0,-1.45 0,-2.9 0,-4.35c0.01,-2.23 0,-4.45 0,-6.68c0,-1.4 0,-2.81 0,-4.21c0,-1.29 0,-2.58 0,-3.9c0.17,-3.9 0.17,-3.9 4.07,-4.07z" fill="#000000" id="svg_26"/>
  <path d="m416,83c2.44,1.56 2.44,1.56 4,4c0.55,2.78 0.57,5.22 0,8c-1.91,2.75 -3.29,3.72 -6.38,4.94c-3.61,0.08 -5.6,-1 -8.62,-2.94c-2.16,-2.63 -2,-4.05 -1.94,-7.5c0.94,-3.5 0.94,-3.5 3.06,-6c3.83,-2 5.78,-1.69 9.88,-0.5z" fill="#000000" id="svg_27"/>
  <path d="m283.5,152.88c3.5,0.13 3.5,0.13 4.5,1.13c0.13,3.5 0.13,3.5 0,7c-1,1 -1,1 -4.5,1.12c-3.5,-0.12 -3.5,-0.12 -4.5,-1.12c-0.13,-3.5 -0.13,-3.5 0,-7c1,-1 1,-1 4.5,-1.13z" fill="#000000" id="svg_28"/>
  <path d="m13,15c0.66,0 1.32,0 2,0c-0.51,2.17 -1,4 -2,6c-0.23,2.37 -0.41,4.75 -0.56,7.13c-0.09,1.28 -0.17,2.56 -0.26,3.88c-0.09,1.48 -0.09,1.48 -0.18,2.99c-2.22,-3.33 -2.11,-4.97 -2,-8.86c0,-3.12 -0.49,-6.07 -1,-9.14c0.99,0.5 0.99,0.5 2,1c0.66,-0.99 1.32,-1.98 2,-3z" fill="#000000" id="svg_29"/>
  <path d="m374,22c0.66,0.66 1.32,1.32 2,2c-0.74,0.65 -0.74,0.65 -1.5,1.31c-1.83,1.69 -1.83,1.69 -1.5,4.69c-0.99,0 -1.98,0 -3,0c1.12,-2.97 2.22,-5.33 4,-8z" fill="#000000" id="svg_30"/>
  <path d="m214,17c0.66,0.33 1.32,0.66 2,1c-1.19,1.5 -1.19,1.5 -3,3c-2.69,0.19 -2.69,0.19 -5,0c2.05,-2.25 3.01,-3 6,-4z" fill="#000000" id="svg_31"/>
 </g>
</svg>