<?xml version="1.0" encoding="UTF-8"?>
<svg version="1.1" xmlns="http://www.w3.org/2000/svg" width="948" height="206">
<path d="M0 0 C5.20774587 3.17919674 7.5661409 7.87618378 10.4375 13.0625 C10.88931641 13.85849609 11.34113281 14.65449219 11.80664062 15.47460938 C14.20466516 19.71622157 16.54028596 23.99039051 18.86328125 28.2734375 C22.3934045 34.76007464 26.06356061 41.16373929 29.75 47.5625 C30.42841874 48.74802781 31.10680431 49.9335746 31.78515625 51.11914062 C32.42839844 52.23611328 33.07164062 53.35308594 33.734375 54.50390625 C34.60400879 56.01706421 34.60400879 56.01706421 35.49121094 57.56079102 C36.90997097 60.06289422 36.90997097 60.06289422 39 62 C39.44988281 61.20980469 39.89976562 60.41960937 40.36328125 59.60546875 C44.85240318 51.73376195 49.37662894 43.8831841 53.92431641 36.04516602 C56.37270118 31.82227552 58.80615989 27.59190218 61.2121582 23.34472656 C64.1820077 18.10827603 67.20212823 12.90408459 70.3125 7.75 C70.94800781 6.69296875 71.58351563 5.6359375 72.23828125 4.546875 C74 2 74 2 77 0 C80.375 -0.4375 80.375 -0.4375 84 0 C86.63016161 2.1727422 88.47336894 3.94673788 90 7 C90.10326045 9.48625196 90.14681422 11.94468542 90.14526367 14.43139648 C90.14862228 15.19740173 90.1519809 15.96340698 90.15544128 16.75262451 C90.16496283 19.29213062 90.16689497 21.83157089 90.16796875 24.37109375 C90.17118039 26.13224821 90.17454439 27.89340239 90.17805481 29.65455627 C90.18404902 33.34921894 90.1858944 37.0438582 90.18530273 40.73852539 C90.18520107 45.47783444 90.1988562 50.21699381 90.21607494 54.95626736 C90.22718135 58.59447421 90.22922237 62.23264471 90.22869301 65.87086678 C90.22987507 67.61840392 90.23430944 69.36594194 90.24202538 71.11346245 C90.25179832 73.55548531 90.24895804 75.99718111 90.24291992 78.43920898 C90.24853943 79.16398941 90.25415894 79.88876984 90.25994873 80.63551331 C90.23675175 84.31845895 90.10131657 85.84802514 88 89 C84.8125 89.328125 84.8125 89.328125 81 89.25 C79.741875 89.23453125 78.48375 89.2190625 77.1875 89.203125 C74 89 74 89 72 88 C71.67 73.48 71.34 58.96 71 44 C67.03481233 50.23100919 63.3339032 56.11705259 59.87109375 62.5546875 C57.24416265 67.39175062 54.57143389 72.20137868 51.875 77 C51.10216675 78.39968018 51.10216675 78.39968018 50.3137207 79.82763672 C49.81573975 80.7095166 49.31775879 81.59139648 48.8046875 82.5 C48.36108887 83.2940625 47.91749023 84.088125 47.46044922 84.90625 C45.85899576 87.20214851 44.37275388 88.52777342 42 90 C38.33958996 90.54516745 36.65100046 90.4322726 33.546875 88.37109375 C30.64891153 85.6731431 29.0763052 83.10040157 27.1875 79.625 C26.49376854 78.36703362 25.79975006 77.1092255 25.10546875 75.8515625 C24.75661621 75.2112207 24.40776367 74.57087891 24.04833984 73.91113281 C22.40601169 70.91715405 20.70108152 67.96101813 19 65 C17.66630786 62.66687089 16.33298943 60.33353047 15 58 C14.28647911 56.75129021 13.57293752 55.50259225 12.859375 54.25390625 C9.9296875 49.12695313 9.9296875 49.12695313 7 44 C6.98018066 45.29212402 6.96036133 46.58424805 6.93994141 47.91552734 C6.86401632 52.69779345 6.77527922 57.47975005 6.68261719 62.26171875 C6.64427315 64.33359681 6.60942995 66.40554269 6.578125 68.47753906 C6.53259191 71.45141887 6.47457882 74.42482962 6.4140625 77.3984375 C6.39673569 78.79381241 6.39673569 78.79381241 6.37905884 80.21737671 C6.35918915 81.07811798 6.33931946 81.93885925 6.31884766 82.82568359 C6.30552399 83.58513275 6.29220032 84.34458191 6.2784729 85.12704468 C6 87 6 87 4 89 C1.43707683 89.17163731 -1.00345857 89.23264558 -3.5625 89.1875 C-4.26052734 89.18685547 -4.95855469 89.18621094 -5.67773438 89.18554688 C-10.85968842 89.14031158 -10.85968842 89.14031158 -12 88 C-12.10569777 85.46541265 -12.14678171 82.95793557 -12.14526367 80.42260742 C-12.14862228 79.62909378 -12.1519809 78.83558014 -12.15544128 78.01802063 C-12.16498224 75.38048764 -12.16689614 72.74301795 -12.16796875 70.10546875 C-12.17117979 68.27801995 -12.17454374 66.45057142 -12.17805481 64.62312317 C-12.1840544 60.78544519 -12.18589393 56.94778976 -12.18530273 53.11010742 C-12.18520121 48.19038881 -12.19883954 43.27081484 -12.21607494 38.35113049 C-12.22719111 34.5739119 -12.22922204 30.79672828 -12.22869301 27.01949501 C-12.22987424 25.20579849 -12.23430401 23.3921011 -12.24202538 21.57842064 C-12.25181496 19.04070286 -12.24895103 16.50329893 -12.24291992 13.96557617 C-12.24853943 13.21476776 -12.25415894 12.46395935 -12.25994873 11.69039917 C-12.23760325 7.99314776 -12.20408422 5.05922151 -10 2 C-6.2626144 -0.4915904 -4.42668417 -0.45793285 0 0 Z " fill="#FDFDFC" transform="translate(302,11)"/>
<path d="M0 0 C0.95203308 -0.0066568 1.90406616 -0.0133136 2.88494873 -0.02017212 C4.881613 -0.03023062 6.87831042 -0.03499127 8.875 -0.03466797 C11.92763867 -0.03907081 14.97886354 -0.07554301 18.03125 -0.11328125 C19.97916176 -0.11914496 21.92708033 -0.12311733 23.875 -0.125 C24.78340637 -0.13937103 25.69181274 -0.15374207 26.62774658 -0.16854858 C30.83773196 -0.13812515 33.07761308 -0.03502427 36.72167969 2.23974609 C40.18570951 5.96310113 39.80864146 9.14886598 39.78540039 13.99853516 C39.78554642 14.78886642 39.78569244 15.57919769 39.7858429 16.39347839 C39.78514483 19.01234661 39.77735739 21.63114417 39.76953125 24.25 C39.76766669 26.06318116 39.76624297 27.87636283 39.76524353 29.68954468 C39.76142132 34.46697373 39.75159355 39.24437249 39.74053955 44.02178955 C39.73031907 48.89473053 39.72574454 53.7676764 39.72070312 58.640625 C39.70997103 68.20574249 39.69289814 77.77083748 39.671875 87.3359375 C36.70331627 88.82021686 33.97275841 88.54535287 30.671875 88.5859375 C29.41375 88.61171875 28.155625 88.6375 26.859375 88.6640625 C25.8075 88.55578125 24.755625 88.4475 23.671875 88.3359375 C21.671875 85.3359375 21.671875 85.3359375 21.671875 67.3359375 C-3.573125 67.8309375 -3.573125 67.8309375 -29.328125 68.3359375 C-29.658125 74.6059375 -29.988125 80.8759375 -30.328125 87.3359375 C-31.328125 88.3359375 -31.328125 88.3359375 -34.70703125 88.43359375 C-36.10159577 88.42692119 -37.49614243 88.41496282 -38.890625 88.3984375 C-39.60154297 88.39392578 -40.31246094 88.38941406 -41.04492188 88.38476562 C-42.80602513 88.37294614 -44.56708536 88.35501013 -46.328125 88.3359375 C-47.95174762 85.46964274 -48.57963725 83.41227772 -48.58691406 80.125 C-48.59321838 79.30314209 -48.59952271 78.48128418 -48.60601807 77.63452148 C-48.6019696 76.75223877 -48.59792114 75.86995605 -48.59375 74.9609375 C-48.59566345 74.04062744 -48.5975769 73.12031738 -48.59954834 72.17211914 C-48.60090889 70.22200243 -48.59722154 68.27187663 -48.58886719 66.32177734 C-48.57826359 63.37446 -48.58871594 60.42776592 -48.6015625 57.48046875 C-48.61586202 40.74336633 -48.18818711 25.44656741 -36.203125 12.4609375 C-25.86106848 2.86754837 -13.68276644 0.03382505 0 0 Z M-24.328125 26.3359375 C-28.83081807 32.7700183 -30.51817191 39.51686472 -30.328125 47.3359375 C-29.998125 47.9959375 -29.668125 48.6559375 -29.328125 49.3359375 C-12.498125 49.3359375 4.331875 49.3359375 21.671875 49.3359375 C21.671875 39.1059375 21.671875 28.8759375 21.671875 18.3359375 C14.246875 18.243125 14.246875 18.243125 6.671875 18.1484375 C4.35349609 18.10746948 4.35349609 18.10746948 1.98828125 18.06567383 C-7.91226004 18.00579152 -16.99681589 18.89760198 -24.328125 26.3359375 Z " fill="#FEFEFC" transform="translate(234.328125,11.6640625)"/>
<path d="M0 0 C1.70175133 -0.00956978 1.70175133 -0.00956978 3.43788147 -0.01933289 C4.66292892 -0.02044571 5.88797638 -0.02155853 7.15014648 -0.02270508 C8.40633286 -0.02603348 9.66251923 -0.02936188 10.95677185 -0.03279114 C13.61395815 -0.03785712 16.27104216 -0.0406317 18.92822266 -0.04003906 C22.33699479 -0.03993722 25.74555965 -0.05361499 29.15428257 -0.07081127 C32.40289626 -0.08458126 35.65150754 -0.08401916 38.90014648 -0.08520508 C40.12721817 -0.09239059 41.35428986 -0.09957611 42.61854553 -0.10697937 C44.31556862 -0.10236443 44.31556862 -0.10236443 46.046875 -0.09765625 C47.54553856 -0.09979378 47.54553856 -0.09979378 49.07447815 -0.10197449 C51.45874023 0.14526367 51.45874023 0.14526367 53.45874023 2.14526367 C53.68920898 5.33276367 53.68920898 5.33276367 53.64624023 9.14526367 C53.63979492 10.40338867 53.63334961 11.66151367 53.62670898 12.95776367 C53.45874023 16.14526367 53.45874023 16.14526367 52.45874023 18.14526367 C51.76605042 18.1489093 51.0733606 18.15255493 50.35968018 18.15631104 C43.15700602 18.19808663 35.95497203 18.26739799 28.75268555 18.3527832 C26.06386834 18.38324563 23.37523926 18.40390933 20.6862793 18.41625977 C16.82353826 18.43764025 12.96180576 18.48426875 9.09936523 18.53588867 C7.89507874 18.53711731 6.69079224 18.53834595 5.45001221 18.53961182 C4.32915222 18.55933044 3.20829224 18.57904907 2.0534668 18.59936523 C1.06751526 18.60824768 0.08156372 18.61713013 -0.93426514 18.62628174 C-4.28448281 19.29321922 -5.48316068 20.4604578 -7.54125977 23.14526367 C-8.16470549 27.88166186 -8.16470549 27.88166186 -6.16625977 32.02026367 C-3.4549855 33.8972997 -1.77984942 34.27158337 1.47436523 34.28710938 C2.30282959 34.29414383 3.13129395 34.30117828 3.98486328 34.3084259 C4.88374268 34.31259018 5.78262207 34.31675446 6.70874023 34.32104492 C8.6163031 34.3442642 10.52385519 34.36838236 12.43139648 34.39331055 C15.43521098 34.42826136 18.43863496 34.4576732 21.44262695 34.47119141 C24.3443152 34.48680221 27.24485955 34.52711631 30.14624023 34.57104492 C31.47026855 34.5681823 31.47026855 34.5681823 32.82104492 34.56526184 C40.34006788 34.71051005 47.22409158 36.4861922 53.11499023 41.32885742 C53.72342773 42.07264648 54.33186523 42.81643555 54.95874023 43.58276367 C55.58780273 44.32397461 56.21686523 45.06518555 56.86499023 45.82885742 C61.80984132 53.01585912 61.28523923 61.74499001 60.45874023 70.14526367 C58.9130941 76.49444481 54.77275401 80.58394351 49.45874023 84.14526367 C41.38544826 88.61024961 33.54847965 88.69237616 24.51733398 88.57104492 C23.09913087 88.56611116 21.6809212 88.56281871 20.26271057 88.56108093 C17.31343262 88.55349488 14.36464945 88.5330875 11.41552734 88.50195312 C7.62912157 88.46205303 3.8430336 88.44428606 0.05644131 88.43464375 C-3.56080423 88.42470485 -7.17797203 88.40482727 -10.79516602 88.38354492 C-11.83143725 88.3784513 -11.83143725 88.3784513 -12.88864326 88.37325478 C-14.82961101 88.36173616 -16.77052635 88.34221149 -18.71142578 88.32226562 C-19.81599625 88.31242142 -20.92056671 88.30257721 -22.05860901 88.29243469 C-24.54125977 88.14526367 -24.54125977 88.14526367 -25.54125977 87.14526367 C-25.64123619 84.65467453 -25.68005603 82.19798972 -25.66625977 79.70776367 C-25.67012695 79.01360352 -25.67399414 78.31944336 -25.67797852 77.60424805 C-25.66789971 72.39854356 -25.66789971 72.39854356 -24.54125977 70.14526367 C-23.77340149 70.13939743 -23.00554321 70.13353119 -22.2144165 70.12748718 C-14.97510041 70.06956328 -7.73612863 69.9974889 -0.4971199 69.90954876 C3.22447287 69.86483686 6.94595598 69.82558287 10.66772461 69.79882812 C14.26002636 69.77280281 17.85190626 69.73240676 21.44394684 69.68207741 C22.81380208 69.66540329 24.1837303 69.65389236 25.55367279 69.64764977 C27.47364367 69.63801558 29.39348156 69.60825745 31.31323242 69.57763672 C32.40577332 69.56653366 33.49831421 69.5554306 34.6239624 69.54399109 C37.79876144 69.09743778 39.17404244 68.35736215 41.45874023 66.14526367 C43.02529151 62.00509245 42.18126189 59.13426118 40.45874023 55.14526367 C38.17092444 54.00135577 36.86298197 54.00948673 34.31958008 53.98754883 C33.03716934 53.97215561 33.03716934 53.97215561 31.72885132 53.95645142 C30.80182404 53.94915009 29.87479675 53.94184875 28.91967773 53.93432617 C26.95743004 53.90624114 24.99519058 53.87757658 23.03295898 53.84838867 C19.93905002 53.80724757 16.84529189 53.77036248 13.7512207 53.74389648 C10.76538246 53.71613905 7.7802431 53.67024954 4.79467773 53.62182617 C3.87979584 53.6185733 2.96491394 53.61532043 2.02230835 53.61196899 C-6.23913677 53.45534896 -12.96574556 51.40567504 -19.54125977 46.14526367 C-25.58844238 39.27727234 -27.00583117 32.44377218 -26.86157227 23.40698242 C-26.40042876 18.71119187 -24.95326119 15.15964366 -22.54125977 11.14526367 C-22.00500977 10.23776367 -21.46875977 9.33026367 -20.91625977 8.39526367 C-15.26824483 3.04451268 -7.71205345 0.02939959 0 0 Z " fill="#FDFDFC" transform="translate(455.541259765625,11.854736328125)"/>
<path d="M0 0 C0.98540268 -0.00960754 1.97080536 -0.01921509 2.98606873 -0.02911377 C4.0568013 -0.03336365 5.12753387 -0.03761353 6.23071289 -0.04199219 C7.33379288 -0.04769226 8.43687286 -0.05339233 9.57337952 -0.05926514 C11.91626015 -0.06872928 14.25915419 -0.0752547 16.60205078 -0.07910156 C20.15755171 -0.08874295 23.7124587 -0.1197266 27.26782227 -0.15136719 C29.54711572 -0.15790372 31.8264133 -0.16315163 34.10571289 -0.16699219 C35.15822739 -0.17933899 36.21074188 -0.19168579 37.29515076 -0.20440674 C48.22596443 -0.17204794 57.00246715 1.80746315 65.26586914 9.16113281 C66.13211914 9.86238281 66.99836914 10.56363281 67.89086914 11.28613281 C75.99306801 21.09405776 77.44455517 31.1957667 77.45336914 43.47363281 C77.46561523 44.35986328 77.47786133 45.24609375 77.49047852 46.15917969 C77.5162687 57.94529178 75.28863513 69.10584189 67.01586914 77.97363281 C57.2851371 86.90400161 46.62870364 88.47345445 33.84399414 88.46191406 C32.78098083 88.46619919 31.71796753 88.47048431 30.6227417 88.47489929 C28.39067291 88.4806104 26.15858551 88.48116679 23.92651367 88.47680664 C20.51196884 88.47362918 17.09827698 88.49720694 13.68383789 88.52246094 C11.50805773 88.5247325 9.33227525 88.52543809 7.15649414 88.52441406 C6.13871887 88.53362381 5.1209436 88.54283356 4.07232666 88.55232239 C-5.11545982 88.4921822 -5.11545982 88.4921822 -8.73413086 85.16113281 C-10.82493126 81.0614176 -10.99720682 77.55211209 -11.0246582 72.98754883 C-11.03137543 72.2844458 -11.03809265 71.58134277 -11.04501343 70.85693359 C-11.06394281 68.54289601 -11.06791477 66.22914915 -11.07006836 63.91503906 C-11.07649895 62.29987979 -11.08322751 60.68472167 -11.09024048 59.06956482 C-11.10219994 55.68786926 -11.10592259 52.30627576 -11.10473633 48.92456055 C-11.10453302 44.59907467 -11.13185335 40.27424489 -11.16628075 35.94891453 C-11.18855513 32.61424269 -11.19257374 29.27972876 -11.19151688 25.94499016 C-11.19387132 24.35063347 -11.20268611 22.75627233 -11.21818161 21.16198921 C-11.23785715 18.92889973 -11.23199934 16.69722534 -11.2199707 14.46411133 C-11.22282074 13.19567886 -11.22567078 11.9272464 -11.22860718 10.62037659 C-10.64407356 6.53111245 -9.303072 4.35731 -6.73413086 1.16113281 C-4.30241515 -0.05472504 -2.7178769 0.0213702 0 0 Z M7.26586914 18.16113281 C7.26586914 35.32113281 7.26586914 52.48113281 7.26586914 70.16113281 C16.42336914 70.28488281 16.42336914 70.28488281 25.76586914 70.41113281 C28.63242187 70.46575684 28.63242187 70.46575684 31.55688477 70.52148438 C33.09528485 70.53318203 34.63369745 70.5433713 36.17211914 70.55175781 C36.95167969 70.57222168 37.73124023 70.59268555 38.53442383 70.61376953 C44.96679344 70.61780489 50.40556837 68.93034121 55.10571289 64.37988281 C55.46793945 63.81269531 55.83016602 63.24550781 56.20336914 62.66113281 C56.58364258 62.09394531 56.96391602 61.52675781 57.35571289 60.94238281 C59.99441818 55.7782214 59.48613058 50.06145852 59.51586914 44.41113281 C59.53649414 43.44691406 59.55711914 42.48269531 59.57836914 41.48925781 C59.61295244 35.12593116 59.40690834 28.62132691 54.88427734 23.63916016 C49.01628177 18.53631511 44.84158495 17.87244965 37.34399414 17.96582031 C36.58135254 17.96783447 35.81871094 17.96984863 35.03295898 17.97192383 C32.19386754 17.98235959 29.35486207 18.01028219 26.51586914 18.03613281 C20.16336914 18.07738281 13.81086914 18.11863281 7.26586914 18.16113281 Z " fill="#FDFEFD" transform="translate(727.734130859375,11.8388671875)"/>
<path d="M0 0 C1.11910515 -0.00855011 1.11910515 -0.00855011 2.26081848 -0.01727295 C3.83670651 -0.02669075 5.41261396 -0.03324408 6.98852539 -0.03710938 C9.36966436 -0.04677407 11.74992407 -0.07781004 14.13085938 -0.109375 C28.35292839 -0.21044573 37.31938714 1.96869304 47.9609375 11.828125 C56.22857719 20.44802001 56.88148001 31.56433532 56.78344727 42.90014648 C56.76956733 45.13481548 56.8037774 47.3652906 56.84179688 49.59960938 C56.90504292 61.35767524 54.64299819 71.65162363 46.2265625 80.453125 C38.24140122 87.37256843 29.77816668 90.51769248 19.21875 90.50390625 C18.4755098 90.50819138 17.73226959 90.5124765 16.96650696 90.51689148 C15.40256767 90.52260157 13.83860184 90.52315972 12.2746582 90.51879883 C9.91114801 90.51564716 7.54890209 90.53910949 5.18554688 90.56445312 C-6.98404461 90.61644244 -17.25594904 89.36001941 -26.79296875 81.203125 C-36.42138997 70.93904102 -37.99360874 61.27566579 -38.03320312 47.55786133 C-38.04285794 45.53879784 -38.07389766 43.52077613 -38.10546875 41.50195312 C-38.15599198 28.77641346 -35.98152913 18.94332551 -27.1640625 9.44921875 C-19.3561716 2.22103205 -10.39738755 0.0623762 0 0 Z M-13.79296875 21.203125 C-13.79296875 21.863125 -13.79296875 22.523125 -13.79296875 23.203125 C-14.45296875 23.203125 -15.11296875 23.203125 -15.79296875 23.203125 C-22.41151039 33.66469082 -21.65729466 47.30533602 -19.79296875 59.203125 C-18.02995268 64.59011855 -14.47286211 68.11338896 -9.79296875 71.203125 C-4.45565403 72.9742829 1.38813354 72.42756925 6.94165039 72.44335938 C9.00252967 72.4530451 11.06240212 72.48408578 13.12304688 72.515625 C23.86047059 72.57591131 23.86047059 72.57591131 33.1328125 67.73046875 C40.60734478 59.1610754 39.76514112 48.02095664 39.20703125 37.203125 C38.58593581 31.12338791 36.92651308 25.37182062 32.20703125 21.203125 C27.25560595 18.74234242 23.63655305 17.82036972 18.0234375 17.8046875 C17.36423813 17.80181732 16.70503876 17.79894714 16.02586365 17.79598999 C14.64182671 17.79396306 13.25776022 17.79939626 11.8737793 17.81201172 C9.77781813 17.82806154 7.68379221 17.81213184 5.58789062 17.79296875 C-1.4677368 17.78352557 -7.38288405 18.07665788 -13.79296875 21.203125 Z " fill="#FDFDFC" transform="translate(886.79296875,10.796875)"/>
<path d="M0 0 C0.69416016 -0.01224609 1.38832031 -0.02449219 2.10351562 -0.03710938 C3.92470901 -0.04239842 5.7453692 0.06580793 7.5625 0.1875 C10.01542438 2.64042438 9.81268935 3.29455902 9.81787109 6.66210938 C9.82483002 7.59067749 9.83178894 8.51924561 9.83895874 9.47595215 C9.83796173 10.48420044 9.83696472 11.49244873 9.8359375 12.53125 C9.85624508 14.66667173 9.87709618 16.80208835 9.8984375 18.9375 C9.92094226 22.30342907 9.93746789 25.66915568 9.94335938 29.03515625 C9.95294931 32.2842276 9.98682697 35.53238573 10.0234375 38.78125 C10.01839203 39.77330444 10.01334656 40.76535889 10.00814819 41.78747559 C10.10998839 49.11099966 11.3174134 56.18240776 16.05331421 62.02746582 C24.58486928 70.06045042 35.61355369 69.70029494 46.625 69.875 C48.07750355 69.90823621 49.52997886 69.94273151 50.98242188 69.97851562 C54.50890739 70.06269179 58.03546962 70.12983651 61.5625 70.1875 C61.56027939 69.32528336 61.55805878 68.46306671 61.55577087 67.57472229 C61.53577005 59.46643964 61.52052694 51.35816523 61.51068783 43.24986362 C61.50545949 39.08087172 61.49836274 34.91190013 61.48706055 30.74291992 C61.47622992 26.72292314 61.47022279 22.70294595 61.46762276 18.68293571 C61.46576882 17.14587025 61.46214881 15.60880591 61.45676994 14.07174873 C61.44955716 11.92614513 61.44850916 9.78062345 61.44897461 7.63500977 C61.446754 6.41145279 61.44453339 5.18789581 61.44224548 3.92726135 C61.5625 1.1875 61.5625 1.1875 62.5625 0.1875 C65.05488569 0.06096802 67.50720441 0.00230175 70 0 C70.69416016 -0.01224609 71.38832031 -0.02449219 72.10351562 -0.03710938 C73.92470901 -0.04239842 75.7453692 0.06580793 77.5625 0.1875 C80.02724722 2.65224722 79.80488486 4.04129843 79.83355713 7.40534973 C79.82950867 8.13058334 79.82546021 8.85581696 79.82128906 9.60302734 C79.8247937 10.3674263 79.82829834 11.13182526 79.83190918 11.91938782 C79.84073379 14.45416261 79.83487369 16.98865971 79.828125 19.5234375 C79.82947172 21.28219659 79.83141231 23.04095532 79.83392334 24.79971313 C79.83687582 28.49020931 79.83257404 32.1806088 79.82324219 35.87109375 C79.81186429 40.60135308 79.81839576 45.33138505 79.83038712 50.06163597 C79.83761667 53.69560455 79.83531246 57.32951932 79.83013153 60.96348953 C79.8287972 62.70740409 79.83043519 64.45132354 79.83509064 66.19523239 C79.84017199 68.63468087 79.83242235 71.07376242 79.82128906 73.51318359 C79.82533752 74.23436874 79.82938599 74.95555389 79.83355713 75.69859314 C79.80269682 79.35022132 79.65016902 82.12636008 77.5625 85.1875 C73.11796731 88.97143861 68.49047888 88.63934141 62.94140625 88.62109375 C62.00505844 88.6263356 61.06871063 88.63157745 60.10398865 88.63697815 C58.12117501 88.64339382 56.13832328 88.64206724 54.15551758 88.63354492 C51.16611013 88.62511592 48.17866797 88.65367048 45.18945312 88.68554688 C29.0231456 88.74620702 14.89555544 87.27453032 2.7578125 75.42578125 C-7.01998262 64.60210257 -8.59782545 52.85451608 -8.5703125 38.8203125 C-8.57174759 37.20731766 -8.57174759 37.20731766 -8.57321167 35.56173706 C-8.57388958 33.30092307 -8.57206256 31.04010709 -8.56787109 28.77929688 C-8.56248581 25.30334168 -8.56784536 21.82751386 -8.57421875 18.3515625 C-8.57355852 16.15364555 -8.57227849 13.95572867 -8.5703125 11.7578125 C-8.57233673 10.71311798 -8.57436096 9.66842346 -8.57644653 8.59207153 C-8.57329437 7.63372406 -8.57014221 6.67537659 -8.56689453 5.68798828 C-8.56570114 4.41726974 -8.56570114 4.41726974 -8.56448364 3.12088013 C-8.26419693 -1.45111312 -3.54789749 0.00327599 0 0 Z " fill="#FDFDFD" transform="translate(622.4375,11.8125)"/>
<path d="M0 0 C1.1540609 0.00067978 1.1540609 0.00067978 2.33143616 0.00137329 C3.13791595 -0.00198532 3.94439575 -0.00534393 4.77531433 -0.00880432 C7.45492573 -0.01834319 10.13447483 -0.02025889 12.81410217 -0.02133179 C14.66876248 -0.02454232 16.52342252 -0.02790623 18.37808228 -0.03141785 C22.27123095 -0.03741646 26.1643574 -0.039257 30.05751038 -0.03866577 C35.0558952 -0.0385641 40.05413812 -0.05221778 45.05248928 -0.06943798 C48.88452819 -0.08053486 52.71653255 -0.08258569 56.54858589 -0.08205605 C58.39184623 -0.08323961 60.23510736 -0.08768228 62.07835197 -0.09538841 C64.65239894 -0.10514189 67.2261346 -0.1023288 69.80018616 -0.09628296 C70.56753586 -0.10190247 71.33488556 -0.10752197 72.12548828 -0.11331177 C77.40219288 -0.08167858 77.40219288 -0.08167858 79.63050842 2.14663696 C79.89613342 4.82632446 79.89613342 4.82632446 79.88050842 8.02163696 C79.8882428 9.59558228 79.8882428 9.59558228 79.89613342 11.20132446 C79.63050842 14.14663696 79.63050842 14.14663696 77.63050842 18.14663696 C67.07050842 18.14663696 56.51050842 18.14663696 45.63050842 18.14663696 C45.65371155 22.86460571 45.67691467 27.58257446 45.70082092 32.44351196 C45.71104044 35.4331008 45.7206684 38.42266809 45.72816467 41.41226196 C45.74011853 46.15709915 45.75425755 50.90185912 45.78138733 55.64663696 C45.80312387 59.47213843 45.81507876 63.29755708 45.82026291 67.12311554 C45.82395721 68.58235223 45.83117126 70.04158441 45.84196854 71.50078583 C45.85649442 73.54527061 45.85848593 75.58941353 45.8575592 77.63394165 C45.86200043 78.79754211 45.86644165 79.96114258 45.87101746 81.16000366 C45.63801502 84.05342027 45.14169327 85.70473291 43.63050842 88.14663696 C41.15127041 88.17348792 38.67232002 88.19340244 36.19300842 88.20913696 C35.48595764 88.21751587 34.77890686 88.22589478 34.0504303 88.23452759 C32.24357283 88.24317284 30.4366324 88.19883708 28.63050842 88.14663696 C26.781369 86.29749754 27.45711627 83.26778876 27.42518616 80.79092407 C27.41528656 80.12753525 27.40538696 79.46414642 27.39518738 78.78065491 C27.36349105 76.57846701 27.33878309 74.37625751 27.31410217 72.17398071 C27.29353965 70.65082729 27.27254337 69.12767966 27.25112915 67.60453796 C27.19583595 63.58832483 27.14645879 59.57205958 27.09828186 55.55575562 C27.0481196 51.46035097 26.99240607 47.36502235 26.93714905 43.26968384 C26.82947889 35.22873241 26.72805375 27.18771755 26.63050842 19.14663696 C25.66637024 19.12158081 24.70223206 19.09652466 23.70887756 19.07070923 C20.14363 18.97678391 16.57858409 18.87652757 13.01356506 18.77432251 C11.46836553 18.73091712 9.92311628 18.68924626 8.37782288 18.64932251 C6.16111746 18.59175498 3.94466362 18.52802273 1.72816467 18.46304321 C1.03336502 18.44633072 0.33856537 18.42961823 -0.37728882 18.41239929 C-5.25561987 18.26050867 -5.25561987 18.26050867 -6.36949158 17.14663696 C-6.46930371 14.46932316 -6.50829033 11.82359522 -6.49449158 9.14663696 C-6.49835876 8.39640259 -6.50222595 7.64616821 -6.50621033 6.87319946 C-6.49459581 0.43875878 -6.43769365 0.03940059 0 0 Z " fill="#FEFEFD" transform="translate(527.3694915771484,11.853363037109375)"/>
<path d="M0 0 C1.258125 0.01417969 2.51625 0.02835938 3.8125 0.04296875 C5.070625 0.04941406 6.32875 0.05585938 7.625 0.0625 C10.8125 0.23046875 10.8125 0.23046875 12.8125 1.23046875 C12.8125 24.00046875 12.8125 46.77046875 12.8125 70.23046875 C32.79766115 70.15127323 32.79766115 70.15127323 52.78271484 70.05029297 C55.27962067 70.04445428 57.77652838 70.03935725 60.2734375 70.03515625 C61.58030518 70.02492432 62.88717285 70.01469238 64.23364258 70.00415039 C65.47186768 70.00390869 66.71009277 70.00366699 67.98583984 70.00341797 C69.06505707 69.99897675 70.14427429 69.99453552 71.25619507 69.98995972 C73.8125 70.23046875 73.8125 70.23046875 75.8125 72.23046875 C75.95747985 74.81111004 75.99927545 77.27990759 75.9375 79.85546875 C75.92847656 80.561875 75.91945313 81.26828125 75.91015625 81.99609375 C75.88657603 83.74102973 75.85070461 85.4857917 75.8125 87.23046875 C72.87319585 88.70012083 70.24523454 88.38217947 66.96362305 88.4074707 C66.25935181 88.4140419 65.55508057 88.4206131 64.82946777 88.42738342 C62.49438372 88.44712426 60.15936401 88.45878089 57.82421875 88.46875 C56.62826552 88.47486329 56.62826552 88.47486329 55.40815163 88.48110008 C51.1878752 88.50196451 46.96763132 88.5162644 42.74731445 88.52563477 C38.38917482 88.53669809 34.03154594 88.57109558 29.67358685 88.61080647 C26.3218135 88.63695858 22.97016207 88.64532534 19.61829567 88.64891624 C18.01193608 88.65378614 16.40558208 88.66541169 14.79932213 88.68395424 C12.54899071 88.70831636 10.29998361 88.70738678 8.04956055 88.70043945 C6.13000801 88.70923882 6.13000801 88.70923882 4.17167664 88.71821594 C0.21947465 88.1443624 -1.41871378 87.06216145 -4.1875 84.23046875 C-5.38055078 80.6513164 -5.3350928 77.39464888 -5.33276367 73.66967773 C-5.33612228 72.90192017 -5.3394809 72.1341626 -5.34294128 71.34313965 C-5.35244395 68.80426417 -5.35439381 66.26545465 -5.35546875 63.7265625 C-5.35868093 61.96444166 -5.36204497 60.20232108 -5.36555481 58.44020081 C-5.37154374 54.74731833 -5.37339486 51.05445926 -5.37280273 47.36157227 C-5.37270092 42.6210726 -5.38637362 37.88072209 -5.40357494 33.14025784 C-5.41467021 29.50209356 -5.41672274 25.86396568 -5.41619301 22.22578621 C-5.41737608 20.47742255 -5.42181605 18.72905804 -5.42952538 16.98071098 C-5.43927899 14.54098788 -5.43646616 12.10159318 -5.43041992 9.66186523 C-5.43603943 8.93506058 -5.44165894 8.20825592 -5.44744873 7.45942688 C-5.41659965 2.58230987 -5.38006973 0.38900014 0 0 Z " fill="#FDFEFC" transform="translate(103.1875,11.76953125)"/>
<path d="M0 0 C0.71084244 -0.00189835 1.42168488 -0.00379669 2.15406799 -0.00575256 C4.50305213 -0.00945666 6.85172696 0.00123676 9.20068359 0.01245117 C10.83067793 0.01364308 12.46067297 0.01409611 14.09066772 0.01383972 C17.50531315 0.01540384 20.91985362 0.02368946 24.33447266 0.03710938 C28.72080107 0.05412605 33.10701441 0.05792292 37.49337196 0.05716419 C40.85785021 0.05743549 44.22230309 0.0629097 47.58677292 0.07016563 C49.20477481 0.07335677 50.82277959 0.07532074 52.44078445 0.07605934 C54.69625041 0.0782167 56.95159185 0.08694687 59.20703125 0.09765625 C61.13538315 0.10337395 61.13538315 0.10337395 63.10269165 0.10920715 C65.97412109 0.24291992 65.97412109 0.24291992 66.97412109 1.24291992 C67.07393323 3.92023372 67.11291985 6.56596167 67.09912109 9.24291992 C67.10298828 9.9931543 67.10685547 10.74338867 67.11083984 11.51635742 C67.10073163 17.11630939 67.10073163 17.11630939 65.97412109 18.24291992 C64.07168347 18.33683289 62.16573651 18.3603565 60.26098633 18.35644531 C59.03979599 18.35636978 57.81860565 18.35629425 56.56040955 18.35621643 C55.21784424 18.35110903 53.87527934 18.34589303 52.53271484 18.34057617 C51.16650952 18.33871192 49.80030352 18.33728805 48.43409729 18.33628845 C44.83210414 18.33246386 41.23015109 18.32263409 37.62817383 18.31158447 C33.95508364 18.30136908 30.281987 18.29679056 26.60888672 18.29174805 C19.39727986 18.28101176 12.18570609 18.26393606 4.97412109 18.24291992 C4.97634171 19.10513657 4.97856232 19.96735321 4.98085022 20.85569763 C5.00085105 28.96398028 5.01609416 37.07225469 5.02593327 45.1805563 C5.03116161 49.3495482 5.03825836 53.51851979 5.04956055 57.6875 C5.06039118 61.70749678 5.0663983 65.72747397 5.06899834 69.74748421 C5.07085227 71.28454967 5.07447228 72.82161402 5.07985115 74.35867119 C5.08706393 76.50427479 5.08811194 78.64979647 5.08764648 80.79541016 C5.0898671 82.01896713 5.09208771 83.24252411 5.09437561 84.50315857 C4.97412109 87.24291992 4.97412109 87.24291992 3.97412109 88.24291992 C1.27757256 88.31611614 -1.39279349 88.33534529 -4.08837891 88.30541992 C-4.84699219 88.3009082 -5.60560547 88.29639648 -6.38720703 88.29174805 C-8.26679762 88.27992672 -10.14634789 88.2619907 -12.02587891 88.24291992 C-13.52859693 85.23748388 -13.181919 82.14010891 -13.18701172 78.84326172 C-13.19197662 78.08046906 -13.19694153 77.31767639 -13.20205688 76.5317688 C-13.21669179 74.00188299 -13.22348314 71.47205991 -13.22900391 68.94213867 C-13.23475482 67.18577573 -13.24051256 65.42941282 -13.24627686 63.67304993 C-13.256791 59.98678291 -13.26263077 56.30053772 -13.26611328 52.61425781 C-13.27159507 47.8930172 -13.29561452 43.17206542 -13.32408524 38.45091534 C-13.34271985 34.82120423 -13.34791768 31.19156253 -13.34944916 27.56180763 C-13.35247499 25.82149491 -13.36050121 24.08118339 -13.37363434 22.34091759 C-13.39071022 19.90397644 -13.38881089 17.4677386 -13.38232422 15.03076172 C-13.391539 14.31317184 -13.40075378 13.59558197 -13.4102478 12.85624695 C-13.37376025 8.4751011 -12.73023544 5.71549986 -10.02587891 2.24291992 C-6.31082025 -0.23378585 -4.43634962 -0.0049115 0 0 Z " fill="#FEFEFC" transform="translate(21.02587890625,11.757080078125)"/>
<path d="M0 0 C2.45862401 -0.05383848 4.9160755 -0.09359038 7.375 -0.125 C8.42300781 -0.15013672 8.42300781 -0.15013672 9.4921875 -0.17578125 C11.32897486 -0.19344267 13.16601963 -0.10303261 15 0 C17.52808963 2.52808963 17.24353379 4.10869915 17.27105713 7.55737305 C17.26700867 8.33250244 17.26296021 9.10763184 17.25878906 9.90625 C17.2622937 10.72262939 17.26579834 11.53900879 17.26940918 12.38012695 C17.27823348 15.08683703 17.27237493 17.79328712 17.265625 20.5 C17.26697145 22.37565155 17.26891181 24.25130277 17.27142334 26.12695312 C17.27437555 30.06123166 17.27007386 33.99541949 17.26074219 37.9296875 C17.2493476 42.98074564 17.25590656 48.03159126 17.26788712 53.0826416 C17.27510311 56.95672211 17.27281899 60.83075197 17.26763153 64.70483398 C17.26629431 66.56762721 17.26794527 68.43042498 17.27259064 70.29321289 C17.27765161 72.89351642 17.26995181 75.49347245 17.25878906 78.09375 C17.26283752 78.86887939 17.26688599 79.64400879 17.27105713 80.44262695 C17.22852844 85.77147156 17.22852844 85.77147156 15 88 C12.43707683 88.17163731 9.99654143 88.23264558 7.4375 88.1875 C6.73947266 88.18685547 6.04144531 88.18621094 5.32226562 88.18554688 C0.14031158 88.14031158 0.14031158 88.14031158 -1 87 C-1.1004346 84.36327189 -1.13616846 81.75271184 -1.12939453 79.11547852 C-1.13114685 78.28949158 -1.13289917 77.46350464 -1.13470459 76.61248779 C-1.13912443 73.86793956 -1.13618439 71.1234552 -1.1328125 68.37890625 C-1.13348557 66.47940559 -1.13445561 64.57990502 -1.13571167 62.68040466 C-1.13718887 58.69309675 -1.1350336 54.70581118 -1.13037109 50.71850586 C-1.12467766 45.59909311 -1.12795023 40.47973282 -1.13394356 35.360322 C-1.13755186 31.43563947 -1.13640927 27.51096944 -1.13381577 23.58628654 C-1.13314704 21.69837373 -1.13397302 19.8104598 -1.13629532 17.92254829 C-1.13882581 15.28630684 -1.13497543 12.65015107 -1.12939453 10.01391602 C-1.13141876 9.22786484 -1.13344299 8.44181366 -1.13552856 7.63194275 C-1.11426335 2.22852669 -1.11426335 2.22852669 0 0 Z " fill="#FEFEFC" transform="translate(819,12)"/>
<path d="M0 0 C2.05078125 0.03255208 4.1015625 0.06510417 6.15234375 0.09765625 C7.63066635 3.05430144 7.21267158 5.83995362 7.15234375 9.09765625 C7.85101563 9.08605469 8.5496875 9.07445312 9.26953125 9.0625 C10.63464844 9.04896484 10.63464844 9.04896484 12.02734375 9.03515625 C13.38472656 9.01775391 13.38472656 9.01775391 14.76953125 9 C17.15234375 9.09765625 17.15234375 9.09765625 19.15234375 10.09765625 C19.25 16.25 19.25 16.25 19.15234375 18.09765625 C18.15234375 19.09765625 18.15234375 19.09765625 15.6484375 19.1953125 C14.63910156 19.18371094 13.62976563 19.17210937 12.58984375 19.16015625 C11.57792969 19.15113281 10.56601562 19.14210937 9.5234375 19.1328125 C8.74097656 19.12121094 7.95851563 19.10960937 7.15234375 19.09765625 C7.15758057 19.75886475 7.16281738 20.42007324 7.16821289 21.10131836 C7.18892031 24.07925476 7.20198387 27.05717607 7.21484375 30.03515625 C7.22322266 31.07607422 7.23160156 32.11699219 7.24023438 33.18945312 C7.24345703 34.17880859 7.24667969 35.16816406 7.25 36.1875 C7.25523682 37.10394287 7.26047363 38.02038574 7.26586914 38.96459961 C7.15234375 41.09765625 7.15234375 41.09765625 6.15234375 42.09765625 C3.48175524 42.23880786 0.82802137 42.14012732 -1.84765625 42.09765625 C-3.07403195 39.64490484 -2.96180939 38.04707815 -2.9453125 35.30859375 C-2.94281494 34.46087402 -2.94031738 33.6131543 -2.93774414 32.73974609 C-2.92864014 31.66160645 -2.91953613 30.5834668 -2.91015625 29.47265625 C-2.88953125 26.04890625 -2.86890625 22.62515625 -2.84765625 19.09765625 C-12.08765625 19.09765625 -21.32765625 19.09765625 -30.84765625 19.09765625 C-31.13691566 26.29264426 -31.13691566 26.29264426 -31.41577148 33.48803711 C-31.45387939 34.37885986 -31.4919873 35.26968262 -31.53125 36.1875 C-31.58623657 37.56216431 -31.58623657 37.56216431 -31.64233398 38.96459961 C-31.84765625 41.09765625 -31.84765625 41.09765625 -32.84765625 42.09765625 C-38.37706801 42.33295037 -38.37706801 42.33295037 -40.84765625 41.09765625 C-40.96404051 37.03539804 -41.03496998 32.97356995 -41.09765625 28.91015625 C-41.13117188 27.75966797 -41.1646875 26.60917969 -41.19921875 25.42382812 C-41.21210938 24.31201172 -41.225 23.20019531 -41.23828125 22.0546875 C-41.25922852 21.0335083 -41.28017578 20.0123291 -41.30175781 18.96020508 C-40.71200561 15.2425467 -39.55432173 13.69159085 -36.84765625 11.09765625 C-32.56216861 9.12900805 -28.81438209 8.85942941 -24.13671875 8.90234375 C-22.89277344 8.90878906 -21.64882812 8.91523438 -20.3671875 8.921875 C-18.43939453 8.94701172 -18.43939453 8.94701172 -16.47265625 8.97265625 C-15.16425781 8.98167969 -13.85585937 8.99070313 -12.5078125 9 C-9.28757255 9.0235054 -6.06770918 9.05636538 -2.84765625 9.09765625 C-2.86828125 7.79828125 -2.88890625 6.49890625 -2.91015625 5.16015625 C-2.93165079 3.80599992 -2.91913824 2.45009542 -2.84765625 1.09765625 C-1.84765625 0.09765625 -1.84765625 0.09765625 0 0 Z " fill="#FCFDFB" transform="translate(256.84765625,155.90234375)"/>
<path d="M0 0 C2.15314679 -0.00968468 4.3053299 -0.04071014 6.45825195 -0.07226562 C7.83780361 -0.07879851 9.21736206 -0.08404786 10.59692383 -0.08789062 C12.46924683 -0.10190918 12.46924683 -0.10190918 14.37939453 -0.11621094 C19.10392435 0.36781219 22.33910886 1.7088104 25.69946289 5.09545898 C27.1145029 7.71364063 27.30088987 9.58795899 27.40551758 12.55664062 C27.46545898 14.07354492 27.46545898 14.07354492 27.52661133 15.62109375 C27.55368164 16.67103516 27.58075195 17.72097656 27.60864258 18.80273438 C27.65118164 19.85654297 27.6937207 20.91035156 27.73754883 21.99609375 C28.00637519 29.79703654 28.00637519 29.79703654 26.85864258 33.24023438 C20.10864258 33.36523438 20.10864258 33.36523438 17.85864258 32.24023438 C17.36364258 21.84523437 17.36364258 21.84523437 16.85864258 11.24023438 C14.87864258 10.91023437 12.89864258 10.58023438 10.85864258 10.24023438 C10.8664978 11.23204712 10.8664978 11.23204712 10.87451172 12.24389648 C10.89521914 15.22183289 10.9082827 18.19975419 10.92114258 21.17773438 C10.92952148 22.21865234 10.93790039 23.25957031 10.9465332 24.33203125 C10.95136719 25.81606445 10.95136719 25.81606445 10.95629883 27.33007812 C10.96415405 28.70474243 10.96415405 28.70474243 10.97216797 30.10717773 C10.85864258 32.24023438 10.85864258 32.24023438 9.85864258 33.24023438 C6.92114258 33.42773438 6.92114258 33.42773438 3.85864258 33.24023438 C1.41949765 30.80108945 1.57201735 30.02577007 1.44458008 26.66992188 C1.4059082 25.77402344 1.36723633 24.878125 1.32739258 23.95507812 C1.29645508 23.01792969 1.26551758 22.08078125 1.23364258 21.11523438 C1.1949707 20.17035156 1.15629883 19.22546875 1.11645508 18.25195312 C1.02203438 15.91504088 0.9392436 13.57766407 0.85864258 11.24023438 C-2.11135742 10.91023437 -5.08135742 10.58023438 -8.14135742 10.24023438 C-8.1181543 11.73296875 -8.09495117 13.22570312 -8.07104492 14.76367188 C-8.05228996 16.71418772 -8.03408947 18.66470896 -8.01635742 20.61523438 C-7.99959961 21.60007813 -7.9828418 22.58492187 -7.96557617 23.59960938 C-7.95913086 24.540625 -7.95268555 25.48164063 -7.94604492 26.45117188 C-7.93557129 27.3204834 -7.92509766 28.18979492 -7.91430664 29.08544922 C-8.14135742 31.24023438 -8.14135742 31.24023438 -10.14135742 33.24023438 C-13.14135742 33.49023438 -13.14135742 33.49023438 -16.14135742 33.24023438 C-18.85788109 30.52371071 -18.39921045 29.03936345 -18.40698242 25.24414062 C-18.40956055 24.04595703 -18.41213867 22.84777344 -18.41479492 21.61328125 C-18.40706055 20.35580078 -18.39932617 19.09832031 -18.39135742 17.80273438 C-18.3990918 16.54912109 -18.40682617 15.29550781 -18.41479492 14.00390625 C-18.4122168 12.80443359 -18.40963867 11.60496094 -18.40698242 10.36914062 C-18.40472656 9.26642822 -18.4024707 8.16371582 -18.40014648 7.02758789 C-18.14135742 4.24023438 -18.14135742 4.24023438 -16.14135742 1.24023438 C-10.96352877 -0.48570851 -5.42065403 0.01476515 0 0 Z " fill="#FCFCFB" transform="translate(395.141357421875,164.759765625)"/>
<path d="M0 0 C2.13341928 0.00314842 4.26543477 -0.02027317 6.39868164 -0.0456543 C7.7704247 -0.04792886 9.14217145 -0.04863006 10.51391602 -0.04760742 C11.75052979 -0.05058838 12.98714355 -0.05356934 14.26123047 -0.05664062 C18.48920977 0.38344322 21.08389492 1.34233215 24.83813477 3.31567383 C27.08016641 6.67872129 27.1406862 8.05206618 27.28735352 12.00708008 C27.33053711 13.11631836 27.3737207 14.22555664 27.41821289 15.3684082 C27.45366211 16.52663086 27.48911133 17.68485352 27.52563477 18.87817383 C27.57268555 20.04026367 27.61973633 21.20235352 27.66821289 22.3996582 C27.97489807 31.04214721 27.97489807 31.04214721 26.83813477 33.31567383 C23.46313477 33.50317383 23.46313477 33.50317383 19.83813477 33.31567383 C17.70209168 30.1116092 17.59604569 29.31966635 17.64282227 25.64770508 C17.64926758 24.7550293 17.65571289 23.86235352 17.66235352 22.94262695 C17.67911133 22.01385742 17.69586914 21.08508789 17.71313477 20.12817383 C17.7221582 19.18780273 17.73118164 18.24743164 17.74047852 17.27856445 C17.7640442 14.95734415 17.7969436 12.63663739 17.83813477 10.31567383 C15.52813477 10.31567383 13.21813477 10.31567383 10.83813477 10.31567383 C10.84598999 11.30748657 10.84598999 11.30748657 10.85400391 12.31933594 C10.87471132 15.29727234 10.88777489 18.27519365 10.90063477 21.25317383 C10.90901367 22.2940918 10.91739258 23.33500977 10.92602539 24.4074707 C10.93085937 25.89150391 10.93085937 25.89150391 10.93579102 27.40551758 C10.94364624 28.78018188 10.94364624 28.78018188 10.95166016 30.18261719 C10.83813477 32.31567383 10.83813477 32.31567383 9.83813477 33.31567383 C6.90063477 33.50317383 6.90063477 33.50317383 3.83813477 33.31567383 C1.83813477 31.31567383 1.83813477 31.31567383 1.61108398 29.16088867 C1.62155762 28.29157715 1.63203125 27.42226562 1.64282227 26.52661133 C1.64926758 25.5855957 1.65571289 24.64458008 1.66235352 23.67504883 C1.67911133 22.69020508 1.69586914 21.70536133 1.71313477 20.69067383 C1.7221582 19.6980957 1.73118164 18.70551758 1.74047852 17.68286133 C1.76409228 15.22702995 1.79996407 12.77132209 1.83813477 10.31567383 C-1.46186523 10.31567383 -4.76186523 10.31567383 -8.16186523 10.31567383 C-8.15026367 11.89219727 -8.13866211 13.4687207 -8.12670898 15.09301758 C-8.1173328 17.14640182 -8.10823242 19.19978733 -8.09936523 21.25317383 C-8.09098633 22.2940918 -8.08260742 23.33500977 -8.07397461 24.4074707 C-8.07075195 25.39682617 -8.0675293 26.38618164 -8.06420898 27.40551758 C-8.05897217 28.32196045 -8.05373535 29.23840332 -8.04833984 30.18261719 C-8.16186523 32.31567383 -8.16186523 32.31567383 -9.16186523 33.31567383 C-11.49483957 33.3566032 -13.82891748 33.35809106 -16.16186523 33.31567383 C-18.6883215 29.50102445 -18.4282533 25.59349376 -18.34936523 21.19067383 C-18.34001953 20.43455811 -18.33067383 19.67844238 -18.32104492 18.89941406 C-18.28442053 16.70406353 -18.22764778 14.51032474 -18.16186523 12.31567383 C-18.1322168 11.23672852 -18.10256836 10.1577832 -18.07202148 9.04614258 C-17.77599387 4.11475581 -17.77599387 4.11475581 -17.16186523 2.31567383 C-12.21175262 -1.05416709 -5.74722639 -0.01776475 0 0 Z " fill="#FCFDFC" transform="translate(634.161865234375,164.684326171875)"/>
<path d="M0 0 C0.83273437 0.02771484 1.66546875 0.05542969 2.5234375 0.08398438 C7.66283654 0.37450773 10.66591142 1.05981649 14.375 4.9375 C15.87802481 7.94354962 15.50494577 10.71415972 15.5078125 14.0625 C15.50876923 14.7652002 15.50972595 15.46790039 15.51071167 16.19189453 C15.51139238 17.67806081 15.5095457 19.16423006 15.50537109 20.65039062 C15.50002125 22.92845319 15.50531972 25.20631859 15.51171875 27.484375 C15.51105795 28.92708377 15.50977675 30.36979242 15.5078125 31.8125 C15.50668457 33.12992188 15.50555664 34.44734375 15.50439453 35.8046875 C15.375 38.9375 15.375 38.9375 14.375 40.9375 C6.455 40.9375 -1.465 40.9375 -9.625 40.9375 C-9.625 39.6175 -9.625 38.2975 -9.625 36.9375 C-6.79230334 35.52115167 -4.15033562 35.5911995 -1 35.375 C0.18851563 35.29121094 1.37703125 35.20742187 2.6015625 35.12109375 C3.51679687 35.06050781 4.43203125 34.99992187 5.375 34.9375 C5.375 33.9475 5.375 32.9575 5.375 31.9375 C5.045 32.2675 4.715 32.5975 4.375 32.9375 C1.61137391 33.09169373 -1.11002556 33.16921918 -3.875 33.1875 C-4.63941406 33.208125 -5.40382813 33.22875 -6.19140625 33.25 C-10.80886246 33.28189952 -13.93145938 33.0177735 -17.625 29.9375 C-21.80196112 23.54757934 -21.08949346 15.09312626 -19.625 7.9375 C-18.12276471 4.30272091 -16.95588647 3.13226229 -13.5390625 1.12109375 C-9.04261371 -0.55296509 -4.72277847 -0.31362201 0 0 Z M-9.625 9.9375 C-10.87569801 12.43889602 -10.75802467 14.21142691 -10.75 17 C-10.75257813 17.89847656 -10.75515625 18.79695313 -10.7578125 19.72265625 C-10.87238223 21.91128893 -10.87238223 21.91128893 -9.625 22.9375 C-7.31604731 23.14767016 -5.00226031 23.30589941 -2.6875 23.4375 C4.15456372 23.82728186 4.15456372 23.82728186 6.375 24.9375 C6.40185412 22.62506208 6.42132841 20.3125373 6.4375 18 C6.44910156 16.71222656 6.46070313 15.42445313 6.47265625 14.09765625 C6.74032549 11.07451597 6.74032549 11.07451597 5.375 9.9375 C2.84450598 9.86436433 0.34195163 9.84502473 -2.1875 9.875 C-2.89841797 9.87951172 -3.60933594 9.88402344 -4.34179688 9.88867188 C-6.10290013 9.90049136 -7.86396036 9.91842737 -9.625 9.9375 Z " fill="#FCFDFB" transform="translate(559.625,165.0625)"/>
<path d="M0 0 C3.97664331 0.9368054 7.55910317 2.60986552 10 6 C11.19375217 9.5896632 11.20147647 13.11442627 11.25 16.875 C11.27578125 18.06867188 11.3015625 19.26234375 11.328125 20.4921875 C10.87192057 25.36923014 9.61474967 28.55618791 5.93359375 31.84765625 C1.63695503 33.53541713 -2.36143101 33.47416188 -6.9375 33.4375 C-8.25911133 33.4674707 -8.25911133 33.4674707 -9.60742188 33.49804688 C-15.36843358 33.49373151 -18.60075261 32.79196765 -23 29 C-24.86233425 25.27533151 -24.57130829 21.05504687 -24 17 C-22.3279253 13.87421857 -20.2143765 11.60718825 -17 10 C-17.226875 8.906875 -17.45375 7.81375 -17.6875 6.6875 C-18 3 -18 3 -16.97265625 1.29296875 C-12.37546574 -1.72023929 -5.32405344 -0.42299153 0 0 Z M-14 20 C-14.33 20.99 -14.66 21.98 -15 23 C-9.72 23 -4.44 23 1 23 C1 22.01 1 21.02 1 20 C-3.95 20 -8.9 20 -14 20 Z " fill="#FCFCFC" transform="translate(526,165)"/>
<path d="M0 0 C3.2594758 0.83414542 5.64380298 1.89525587 7.62890625 4.65234375 C8.89754789 8.45826868 8.85210697 12.06105016 8.87890625 16.02734375 C8.89953125 16.78273437 8.92015625 17.538125 8.94140625 18.31640625 C8.97354171 22.91177676 8.69504931 25.98630314 5.62890625 29.65234375 C1.2176715 33.42164509 -3.35223408 33.10340767 -8.87109375 33.02734375 C-10.13373047 33.04474609 -10.13373047 33.04474609 -11.421875 33.0625 C-16.22283226 33.03981831 -19.48144671 32.76707078 -23.37109375 29.65234375 C-25.70881889 26.75034012 -26.33584034 24.92933481 -26.80859375 21.21484375 C-26.28772835 16.97351124 -25.13882806 14.88136711 -22.37109375 11.65234375 C-20.12109375 10.77734375 -20.12109375 10.77734375 -18.37109375 10.65234375 C-18.70109375 9.99234375 -19.03109375 9.33234375 -19.37109375 8.65234375 C-19.62109375 5.15234375 -19.62109375 5.15234375 -19.37109375 1.65234375 C-13.9493645 -1.96214242 -6.30848568 -0.92496742 0 0 Z M-9.49609375 19.15234375 C-11.41808594 19.2915625 -11.41808594 19.2915625 -13.37890625 19.43359375 C-14.86003906 19.541875 -14.86003906 19.541875 -16.37109375 19.65234375 C-16.37109375 20.64234375 -16.37109375 21.63234375 -16.37109375 22.65234375 C-11.42109375 22.65234375 -6.47109375 22.65234375 -1.37109375 22.65234375 C-1.04109375 21.33234375 -0.71109375 20.01234375 -0.37109375 18.65234375 C-3.42372317 18.65234375 -6.45204895 18.93095867 -9.49609375 19.15234375 Z " fill="#FCFDFC" transform="translate(451.37109375,165.34765625)"/>
<path d="M0 0 C1.46657043 -0.00472824 1.46657043 -0.00472824 2.96276855 -0.009552 C4.0262854 -0.00752777 5.08980225 -0.00550354 6.18554688 -0.00341797 C7.81127625 -0.00485306 7.81127625 -0.00485306 9.46984863 -0.00631714 C11.76652077 -0.00699912 14.06319482 -0.00514358 16.35986328 -0.00097656 C19.88904115 0.00437141 23.41809174 -0.00092097 26.94726562 -0.00732422 C29.17252632 -0.00666344 31.39778694 -0.00538228 33.62304688 -0.00341797 C34.68656372 -0.0054422 35.75008057 -0.00746643 36.8458252 -0.009552 C37.82353882 -0.00639984 38.80125244 -0.00324768 39.80859375 0 C40.67383667 0.00079559 41.53907959 0.00159119 42.43054199 0.00241089 C44.40429688 0.12939453 44.40429688 0.12939453 45.40429688 1.12939453 C45.50410901 3.80670833 45.54309563 6.45243628 45.52929688 9.12939453 C45.53509766 10.25474609 45.53509766 10.25474609 45.54101562 11.40283203 C45.53090741 17.002784 45.53090741 17.002784 44.40429688 18.12939453 C42.87495057 18.22778667 41.34110122 18.25737992 39.80859375 18.25878906 C38.34202332 18.2635173 38.34202332 18.2635173 36.8458252 18.26834106 C35.78230835 18.26631683 34.7187915 18.2642926 33.62304688 18.26220703 C31.9973175 18.26364212 31.9973175 18.26364212 30.33874512 18.2651062 C28.04207298 18.26578818 25.74539893 18.26393264 23.44873047 18.25976562 C19.9195526 18.25441765 16.39050201 18.25971003 12.86132812 18.26611328 C10.63606743 18.2654525 8.41080681 18.26417135 6.18554688 18.26220703 C5.12203003 18.26423126 4.05851318 18.26625549 2.96276855 18.26834106 C1.98505493 18.2651889 1.00734131 18.26203674 0 18.25878906 C-0.86524292 18.25799347 -1.73048584 18.25719788 -2.62194824 18.25637817 C-4.59570312 18.12939453 -4.59570312 18.12939453 -5.59570312 17.12939453 C-5.69551526 14.45208073 -5.73450188 11.80635279 -5.72070312 9.12939453 C-5.72457031 8.37916016 -5.7284375 7.62892578 -5.73242188 6.85595703 C-5.720056 0.00525961 -5.720056 0.00525961 0 0 Z " fill="#FDFDFB" transform="translate(35.595703125,46.87060546875)"/>
<path d="M0 0 C3.03483332 3.18287397 3.88036384 5.16254686 4.5 9.5 C3.89519026 13.7336682 2.78945399 15.77010591 0 19 C-3.25 20.875 -3.25 20.875 -6 22 C-5.979375 23.299375 -5.95875 24.59875 -5.9375 25.9375 C-5.91600546 27.29165633 -5.92851801 28.64756083 -6 30 C-8.01836342 32.01836342 -11.93008233 31.23046117 -14.6875 31.25 C-15.39583984 31.270625 -16.10417969 31.29125 -16.83398438 31.3125 C-21.62582572 31.3478968 -24.82712083 30.59532729 -29 28 C-33.05482696 22.59356405 -32.12501816 14.87997738 -31.4453125 8.52734375 C-30.903143 5.45029405 -30.01064298 3.39730509 -28 1 C-20.71859403 -3.85427065 -7.9492431 -3.44687097 0 0 Z M-21 8 C-21.33 9.32 -21.66 10.64 -22 12 C-14.08 11.505 -14.08 11.505 -6 11 C-6 10.01 -6 9.02 -6 8 C-10.95 8 -15.9 8 -21 8 Z " fill="#FCFDFC" transform="translate(610,167)"/>
<path d="M0 0 C0.95519531 -0.03738281 1.91039062 -0.07476562 2.89453125 -0.11328125 C10.00165135 -0.20224381 10.00165135 -0.20224381 13.859375 2.7734375 C17.0712044 7.19302092 17.03226309 10.79684327 17.125 16.125 C17.18107422 17.32382813 17.18107422 17.32382813 17.23828125 18.546875 C17.30054438 22.7530953 17.08851263 25.53201321 14.4140625 28.890625 C9.82094009 33.17394736 5.31403716 32.58933011 -0.625 32.625 C-1.47578125 32.645625 -2.3265625 32.66625 -3.203125 32.6875 C-8.06065395 32.71776498 -11.30811548 32.53767479 -15.25 29.375 C-18.00199394 26.25607353 -18.47806081 23.91301787 -18.25 19.875 C-17.58090719 15.36426194 -15.88130205 13.20918696 -12.25 10.375 C-11.59 10.045 -10.93 9.715 -10.25 9.375 C-10.58 9.045 -10.91 8.715 -11.25 8.375 C-11.375 4.875 -11.375 4.875 -11.25 1.375 C-8.88249158 -0.99250842 -3.17451421 0.04637405 0 0 Z M-7.25 9.375 C-7.25 9.705 -7.25 10.035 -7.25 10.375 C-5.27 10.375 -3.29 10.375 -1.25 10.375 C-1.25 10.045 -1.25 9.715 -1.25 9.375 C-3.23 9.375 -5.21 9.375 -7.25 9.375 Z M6.75 17.375 C6.42 17.705 6.09 18.035 5.75 18.375 C3.40012738 18.61027773 1.04443961 18.78886417 -1.3125 18.9375 C-2.60285156 19.02128906 -3.89320313 19.10507813 -5.22265625 19.19140625 C-6.22167969 19.25199219 -7.22070312 19.31257813 -8.25 19.375 C-8.58 20.365 -8.91 21.355 -9.25 22.375 C-0.37831896 24.11204419 -0.37831896 24.11204419 7.75 21.375 C7.42 20.055 7.09 18.735 6.75 17.375 Z " fill="#FBFCFB" transform="translate(195.25,165.625)"/>
<path d="M0 0 C2.08995648 4.3616483 2.3427805 8.2550815 1.4375 13 C-1.34406762 16.81472131 -4.08416481 18.59252323 -8.5625 20 C-8.2325 20.33 -7.9025 20.66 -7.5625 21 C-7.4375 24.5 -7.4375 24.5 -7.5625 28 C-9.58086342 30.01836342 -13.49258233 29.23046117 -16.25 29.25 C-16.95833984 29.270625 -17.66667969 29.29125 -18.39648438 29.3125 C-23.17845862 29.34782391 -26.42984879 28.65183616 -30.5625 26 C-33.38216797 21.77049805 -32.96799018 18.16324803 -33 13.1875 C-33.03287109 12.29740234 -33.06574219 11.40730469 -33.09960938 10.49023438 C-33.13522641 6.1222912 -33.03291047 2.95289082 -30.28515625 -0.57421875 C-23.23700018 -6.85385278 -7.33978911 -5.72861589 0 0 Z M-23.5625 6 C-23.5625 7.32 -23.5625 8.64 -23.5625 10 C-15.6425 9.505 -15.6425 9.505 -7.5625 9 C-7.5625 8.01 -7.5625 7.02 -7.5625 6 C-12.8425 6 -18.1225 6 -23.5625 6 Z " fill="#FCFDFC" transform="translate(698.5625,169)"/>
<path d="M0 0 C1.39431504 2.78863007 1.25660094 4.92078868 1 8 C0.01 8.66 -0.98 9.32 -2 10 C-1.195625 10.61875 -0.39125 11.2375 0.4375 11.875 C2.99313576 13.99430771 3.82432534 14.745181 4.2734375 17.953125 C4.46154273 22.20719718 4.43570087 25.09982354 1.6875 28.5 C-3.2673364 33.10915014 -8.65335859 32.1834307 -15.0625 32.1875 C-16.59100586 32.20586914 -16.59100586 32.20586914 -18.15039062 32.22460938 C-19.12298828 32.22654297 -20.09558594 32.22847656 -21.09765625 32.23046875 C-21.98976807 32.23457764 -22.88187988 32.23868652 -23.80102539 32.24291992 C-26 32 -26 32 -28 30 C-28.25 27 -28.25 27 -28 24 C-26 22 -26 22 -23.93701172 21.77294922 C-23.10959473 21.78342285 -22.28217773 21.79389648 -21.4296875 21.8046875 C-20.53378906 21.81113281 -19.63789063 21.81757813 -18.71484375 21.82421875 C-17.30912109 21.84935547 -17.30912109 21.84935547 -15.875 21.875 C-14.93011719 21.88402344 -13.98523438 21.89304688 -13.01171875 21.90234375 C-10.67422708 21.92595478 -8.33723877 21.95888484 -6 22 C-6 21.01 -6 20.02 -6 19 C-7.09699219 19.04640625 -8.19398438 19.0928125 -9.32421875 19.140625 C-10.7786185 19.1781579 -12.23304783 19.21455643 -13.6875 19.25 C-14.40873047 19.28351563 -15.12996094 19.31703125 -15.87304688 19.3515625 C-19.77954343 19.42291404 -21.56934334 19.27534719 -24.95703125 17.109375 C-28.07289258 13.89223329 -28.40485196 11.53301083 -28.34765625 7.0390625 C-27.74649866 3.51317192 -25.78707743 2.04385678 -23 0 C-15.71754113 -1.93307339 -7.33425675 -1.59440364 0 0 Z " fill="#FCFDFC" transform="translate(320,166)"/>
<path d="M0 0 C3.2857383 1.22422296 4.98435521 2.95016811 7.0234375 5.75390625 C9.21732185 10.88326965 9.32644538 15.52642496 9.2734375 21.00390625 C9.28503906 22.2259375 9.28503906 22.2259375 9.296875 23.47265625 C9.27691549 29.50042826 9.27691549 29.50042826 7.0234375 31.75390625 C4.0234375 32.00390625 4.0234375 32.00390625 1.0234375 31.75390625 C-1.37294882 29.35751993 -1.2500821 28.71465215 -1.35546875 25.4375 C-1.40670898 24.1680957 -1.40670898 24.1680957 -1.45898438 22.87304688 C-1.48541016 21.98810547 -1.51183594 21.10316406 -1.5390625 20.19140625 C-1.59875649 18.43995933 -1.66234662 16.68863936 -1.73046875 14.9375 C-1.75439697 14.15947021 -1.7783252 13.38144043 -1.80297852 12.57983398 C-1.78271139 10.73541976 -1.78271139 10.73541976 -2.9765625 9.75390625 C-5.32969805 9.68118884 -7.68489918 9.67019757 -10.0390625 9.69140625 C-11.32941406 9.70042969 -12.61976563 9.70945313 -13.94921875 9.71875 C-14.94824219 9.73035156 -15.94726562 9.74195313 -16.9765625 9.75390625 C-17.00161865 10.38482178 -17.0266748 11.0157373 -17.05249023 11.66577148 C-17.16810387 14.5078745 -17.29098566 17.34961708 -17.4140625 20.19140625 C-17.45337891 21.18462891 -17.49269531 22.17785156 -17.53320312 23.20117188 C-17.57509766 24.14541016 -17.61699219 25.08964844 -17.66015625 26.0625 C-17.71514282 27.37432251 -17.71514282 27.37432251 -17.77124023 28.71264648 C-17.9765625 30.75390625 -17.9765625 30.75390625 -18.9765625 31.75390625 C-22.4765625 31.87890625 -22.4765625 31.87890625 -25.9765625 31.75390625 C-28.5995154 29.13095335 -27.25096924 22.01185728 -27.27172852 18.453125 C-27.28893759 16.39385335 -27.33280682 14.33618922 -27.37695312 12.27734375 C-27.38533203 10.983125 -27.39371094 9.68890625 -27.40234375 8.35546875 C-27.41692627 7.16260254 -27.43150879 5.96973633 -27.4465332 4.74072266 C-26.9765625 1.75390625 -26.9765625 1.75390625 -25.1574707 -0.13598633 C-18.54631215 -3.50114226 -7.01770949 -1.66699744 0 0 Z " fill="#FDFDFB" transform="translate(729.9765625,166.24609375)"/>
<path d="M0 0 C3.52802341 1.26879374 5.54791183 3.05227189 8.12890625 5.765625 C9.61142394 10.21317806 9.58352156 14.66732608 9.81640625 19.328125 C9.87634766 20.29943359 9.93628906 21.27074219 9.99804688 22.27148438 C10.04509766 23.19896484 10.09214844 24.12644531 10.140625 25.08203125 C10.20963013 26.35735718 10.20963013 26.35735718 10.2800293 27.65844727 C10.12890625 29.765625 10.12890625 29.765625 8.12890625 31.765625 C4.56640625 31.953125 4.56640625 31.953125 1.12890625 31.765625 C-0.41310514 30.22361361 -0.05122443 28.72683053 -0.1171875 26.58203125 C-0.15005859 25.73705078 -0.18292969 24.89207031 -0.21679688 24.02148438 C-0.27785741 22.22994219 -0.33516632 20.4382681 -0.38867188 18.64648438 C-0.43991211 17.37708008 -0.43991211 17.37708008 -0.4921875 16.08203125 C-0.51724365 15.30287354 -0.5422998 14.52371582 -0.56811523 13.72094727 C-0.7100899 11.53296661 -0.7100899 11.53296661 -2.87109375 9.765625 C-5.23618736 9.46502557 -7.61551256 9.27047488 -9.99609375 9.140625 C-11.27742188 9.06585938 -12.55875 8.99109375 -13.87890625 8.9140625 C-14.86632812 8.86507812 -15.85375 8.81609375 -16.87109375 8.765625 C-16.86585693 9.4268335 -16.86062012 10.08804199 -16.85522461 10.76928711 C-16.83451719 13.74722351 -16.82145363 16.72514482 -16.80859375 19.703125 C-16.80021484 20.74404297 -16.79183594 21.78496094 -16.78320312 22.85742188 C-16.77998047 23.84677734 -16.77675781 24.83613281 -16.7734375 25.85546875 C-16.76820068 26.77191162 -16.76296387 27.68835449 -16.75756836 28.63256836 C-16.87109375 30.765625 -16.87109375 30.765625 -17.87109375 31.765625 C-21.37109375 31.890625 -21.37109375 31.890625 -24.87109375 31.765625 C-27.49404665 29.1426721 -26.14550049 22.02357603 -26.16625977 18.46484375 C-26.18346884 16.4055721 -26.22733807 14.34790797 -26.27148438 12.2890625 C-26.27986328 10.99484375 -26.28824219 9.700625 -26.296875 8.3671875 C-26.31145752 7.17432129 -26.32604004 5.98145508 -26.34106445 4.75244141 C-25.87109375 1.765625 -25.87109375 1.765625 -24.03833008 -0.12426758 C-17.46656199 -3.4904757 -7.01678147 -1.61836805 0 0 Z " fill="#FCFDFB" transform="translate(489.87109375,166.234375)"/>
<path d="M0 0 C6.15234375 -0.09765625 6.15234375 -0.09765625 8 0 C10.04698414 2.04698414 9.70045693 6.30411241 10 9 C11.2375 8.938125 12.475 8.87625 13.75 8.8125 C16.78211302 8.79637174 17.82248296 8.89348977 20.5 10.5 C20.995 10.995 21.49 11.49 22 12 C21.125 17.875 21.125 17.875 20 19 C18.14712498 19.07226502 16.29166122 19.0838122 14.4375 19.0625 C13.42558594 19.05347656 12.41367187 19.04445312 11.37109375 19.03515625 C10.19740234 19.01775391 10.19740234 19.01775391 9 19 C9.00785522 19.93851807 9.00785522 19.93851807 9.01586914 20.89599609 C9.03661618 23.72232057 9.04965286 26.54862905 9.0625 29.375 C9.07087891 30.35984375 9.07925781 31.3446875 9.08789062 32.359375 C9.09272461 33.77089844 9.09272461 33.77089844 9.09765625 35.2109375 C9.10551147 36.51490479 9.10551147 36.51490479 9.11352539 37.84521484 C9 40 9 40 8 42 C5.36 42 2.72 42 0 42 C-1.2263757 39.54724859 -1.11415314 37.9494219 -1.09765625 35.2109375 C-1.09443359 34.26992187 -1.09121094 33.32890625 -1.08789062 32.359375 C-1.07951172 31.37453125 -1.07113281 30.3896875 -1.0625 29.375 C-1.05798828 28.38242188 -1.05347656 27.38984375 -1.04882812 26.3671875 C-1.03702145 23.9113984 -1.020554 21.45572896 -1 19 C-2.299375 19.020625 -3.59875 19.04125 -4.9375 19.0625 C-6.29165633 19.08399454 -7.64756083 19.07148199 -9 19 C-10 18 -10 18 -10.25 14.5625 C-10.1675 13.386875 -10.085 12.21125 -10 11 C-6.5647952 8.70986347 -5.014669 8.82157027 -1 9 C-1.020625 7.88625 -1.04125 6.7725 -1.0625 5.625 C-1 2 -1 2 0 0 Z " fill="#FDFDFB" transform="translate(335,156)"/>
<path d="M0 0 C2.05078125 0.03255208 4.1015625 0.06510417 6.15234375 0.09765625 C7.27734375 5.72265625 7.27734375 5.72265625 6.15234375 9.09765625 C7.05726563 9.06285156 7.05726563 9.06285156 7.98046875 9.02734375 C9.17929687 9.00027344 9.17929687 9.00027344 10.40234375 8.97265625 C11.19125 8.94945312 11.98015625 8.92625 12.79296875 8.90234375 C15.35966316 9.11481845 16.94395045 9.8111152 19.15234375 11.09765625 C19.19476098 13.430604 19.19327312 15.76468192 19.15234375 18.09765625 C17.41277717 19.83722283 14.95868155 19.46956011 12.58984375 19.66015625 C11.07197266 19.78583984 11.07197266 19.78583984 9.5234375 19.9140625 C8.34974609 20.00494141 8.34974609 20.00494141 7.15234375 20.09765625 C7.17554688 21.350625 7.19875 22.60359375 7.22265625 23.89453125 C7.24141802 25.54556695 7.25961778 27.1966091 7.27734375 28.84765625 C7.30248047 30.08515625 7.30248047 30.08515625 7.328125 31.34765625 C7.33457031 32.146875 7.34101562 32.94609375 7.34765625 33.76953125 C7.35812988 34.50268555 7.36860352 35.23583984 7.37939453 35.99121094 C7.12011919 38.39661701 6.344603 40.01017119 5.15234375 42.09765625 C2.27734375 42.22265625 2.27734375 42.22265625 -0.84765625 42.09765625 C-2.84765625 40.09765625 -2.84765625 40.09765625 -3.07470703 37.94287109 C-3.05899658 36.63890381 -3.05899658 36.63890381 -3.04296875 35.30859375 C-3.03652344 34.36757812 -3.03007813 33.4265625 -3.0234375 32.45703125 C-3.00667969 31.4721875 -2.98992188 30.48734375 -2.97265625 29.47265625 C-2.96363281 28.48007813 -2.95460938 27.4875 -2.9453125 26.46484375 C-2.92169741 24.00887491 -2.88876424 21.55338457 -2.84765625 19.09765625 C-5.81765625 19.09765625 -8.78765625 19.09765625 -11.84765625 19.09765625 C-12.76657741 15.42197161 -12.80670481 13.9338505 -11.84765625 10.09765625 C-7.39265625 9.60265625 -7.39265625 9.60265625 -2.84765625 9.09765625 C-2.86828125 7.79828125 -2.88890625 6.49890625 -2.91015625 5.16015625 C-2.93165079 3.80599992 -2.91913824 2.45009542 -2.84765625 1.09765625 C-1.84765625 0.09765625 -1.84765625 0.09765625 0 0 Z " fill="#FCFDFB" transform="translate(752.84765625,155.90234375)"/>
<path d="M0 0 C3.0625 0.125 3.0625 0.125 5.0625 1.125 C5.08715504 5.52156173 5.10533842 9.9180872 5.11743164 14.31469727 C5.12247121 15.81144918 5.12930287 17.30819616 5.13793945 18.80493164 C5.15002159 20.95199807 5.15573191 23.09899962 5.16015625 25.24609375 C5.16539307 26.5395874 5.17062988 27.83308105 5.17602539 29.16577148 C5.0625 32.125 5.0625 32.125 4.0625 33.125 C0.5625 33.25 0.5625 33.25 -2.9375 33.125 C-4.84599948 31.21650052 -4.06809633 27.81021226 -4.0703125 25.28125 C-4.07126923 24.59695923 -4.07222595 23.91266846 -4.07321167 23.2076416 C-4.0738933 21.75838123 -4.07204023 20.30911782 -4.06787109 18.85986328 C-4.06252252 16.63437072 -4.0678166 14.40907999 -4.07421875 12.18359375 C-4.07355797 10.77864539 -4.0722768 9.37369715 -4.0703125 7.96875 C-4.06918457 6.68162109 -4.06805664 5.39449219 -4.06689453 4.06835938 C-3.8953303 0.16575874 -3.8953303 0.16575874 0 0 Z " fill="#FDFDFC" transform="translate(282.9375,164.875)"/>
<path d="M0 0 C2.4375 1.5625 2.4375 1.5625 4 4 C4.5541083 6.7819664 4.56528839 9.21923793 4 12 C2.09496794 14.75171298 0.7143524 15.71801879 -2.375 16.9375 C-5.99044695 17.02358207 -7.98467749 15.94320784 -11 14 C-13.15741221 11.37358513 -12.9990559 9.94713058 -12.9375 6.5 C-12 3 -12 3 -9.875 0.5 C-6.05036816 -1.49546009 -4.10368679 -1.19379979 0 0 Z " fill="#FDFDFC" transform="translate(416,83)"/>
<path d="M0 0 C3.5 0.125 3.5 0.125 4.5 1.125 C4.625 4.625 4.625 4.625 4.5 8.125 C3.5 9.125 3.5 9.125 0 9.25 C-3.5 9.125 -3.5 9.125 -4.5 8.125 C-4.625 4.625 -4.625 4.625 -4.5 1.125 C-3.5 0.125 -3.5 0.125 0 0 Z " fill="#FCFDFA" transform="translate(283.5,152.875)"/>
<path d="M0 0 C0.66 0 1.32 0 2 0 C1.49396008 2.16874252 1.00016187 3.99967627 0 6 C-0.23029956 8.37123246 -0.41119942 10.74741943 -0.5625 13.125 C-0.64628906 14.40632813 -0.73007813 15.68765625 -0.81640625 17.0078125 C-0.90728516 18.48894531 -0.90728516 18.48894531 -1 20 C-3.21807995 16.67288007 -3.11181598 15.02537517 -3.00390625 11.140625 C-2.99821154 8.01992149 -3.48753225 5.0748065 -4 2 C-3.01 2.495 -3.01 2.495 -2 3 C-1.34 2.01 -0.68 1.02 0 0 Z " fill="#FBFCEF" transform="translate(13,15)"/>
<path d="M0 0 C0.66 0.66 1.32 1.32 2 2 C1.2575 2.6496875 1.2575 2.6496875 0.5 3.3125 C-1.33218192 4.99740483 -1.33218192 4.99740483 -1 8 C-1.99 8 -2.98 8 -4 8 C-2.87548273 5.0280615 -1.77706209 2.66559313 0 0 Z " fill="#F8F9F3" transform="translate(374,22)"/>
<path d="M0 0 C0.66 0.33 1.32 0.66 2 1 C0.8125 2.5 0.8125 2.5 -1 4 C-3.6875 4.1875 -3.6875 4.1875 -6 4 C-3.94766315 1.7522025 -2.99332739 0.9977758 0 0 Z " fill="#FBFCF0" transform="translate(214,17)"/>
</svg>
