<?xml version="1.0"?>
<svg width="16" height="16" xmlns="http://www.w3.org/2000/svg" xmlns:svg="http://www.w3.org/2000/svg" class="bi bi-envelope-at">
 <g class="layer">
  <title>Layer 1</title>
  <path d="m2,2a2,2 0 0 0 -2,2l0,8.01a2,2 0 0 0 2,1.99l5.5,0a0.5,0.5 0 0 0 0,-1l-5.5,0a1,1 0 0 1 -0.97,-0.74l5.64,-3.47l1.33,0.79l7,-4.2l0,3.12a0.5,0.5 0 0 0 1,0l0,-4.5a2,2 0 0 0 -2,-2l-12,0zm3.71,6.21l-4.71,2.9l0,-5.73l4.71,2.83zm-4.71,-3.99l0,-0.22a1,1 0 0 1 1,-1l12,0a1,1 0 0 1 1,1l0,0.22l-7,4.2l-7,-4.2z" fill="#121d12" id="svg_1"/>
  <path d="m14.25,14.27c1.01,0 1.58,-0.86 1.58,-2.03l0,-0.21c0,-1.6 -1.19,-3.03 -3.31,-3.03l-0.04,0c-2.06,0 -3.48,1.36 -3.48,3.43l0,0.22c0,2.17 1.44,3.35 3.36,3.35l0.04,0c0.6,0 1.02,-0.07 1.24,-0.18l0,-0.73c-0.25,0.11 -0.67,0.18 -1.18,0.18l-0.04,0c-1.34,0 -2.58,-0.78 -2.58,-2.65l0,-0.16c0,-1.65 1.06,-2.72 2.64,-2.72l0.04,0c1.54,0 2.49,1.05 2.49,2.32l0,0.12c0,0.98 -0.33,1.39 -0.64,1.39c-0.23,0 -0.41,-0.15 -0.41,-0.42l0,-2.19l-0.91,0l0,0.57l-0.03,0c-0.08,-0.3 -0.36,-0.63 -0.95,-0.63c-0.78,0 -1.26,0.56 -1.26,1.4l0,0.53c0,0.89 0.49,1.43 1.26,1.43c0.47,0 0.9,-0.22 1.01,-0.64l0.05,0c0.11,0.42 0.61,0.65 1.12,0.65m-2.46,-1.59l0,-0.23c0,-0.54 0.23,-0.79 0.58,-0.79c0.29,0 0.57,0.19 0.57,0.71l0,0.37c0,0.57 -0.25,0.74 -0.56,0.74c-0.36,0 -0.59,-0.21 -0.59,-0.8z" fill="#121d12" id="svg_2"/>
 </g>
</svg>