<?xml version="1.0"?>
<svg width="16" height="16" xmlns="http://www.w3.org/2000/svg" xmlns:svg="http://www.w3.org/2000/svg" class="bi bi-moon">
 <g class="layer">
  <title>Layer 1</title>
  <path d="m6,0.28a0.77,0.77 0 0 1 0.08,0.86a7.2,7.2 0 0 0 -0.88,3.46c0,4.02 3.28,7.27 7.32,7.27q0.79,0 1.53,-0.16a0.79,0.79 0 0 1 0.81,0.32a0.73,0.73 0 0 1 -0.03,0.89a8.35,8.35 0 0 1 -6.49,3.08c-4.61,0 -8.34,-3.71 -8.34,-8.29c0,-3.44 2.11,-6.4 5.12,-7.65a0.75,0.75 0 0 1 0.88,0.22m-1.14,1.03a7.27,7.27 0 0 0 -3.84,6.4c0,4.02 3.28,7.28 7.32,7.28a7.32,7.32 0 0 0 5.21,-2.17q-0.51,0.07 -1.03,0.07c-4.61,0 -8.34,-3.72 -8.34,-8.29c0,-1.17 0.24,-2.28 0.68,-3.29" fill="#121d12" id="svg_1"/>
 </g>
</svg>