<?xml version="1.0"?>
<svg width="16" height="16" xmlns="http://www.w3.org/2000/svg" xmlns:svg="http://www.w3.org/2000/svg" class="bi bi-brightness-high">
 <g class="layer">
  <title>Layer 1</title>
  <path d="m8,11a3,3 0 1 1 0,-6a3,3 0 0 1 0,6m0,1a4,4 0 1 0 0,-8a4,4 0 0 0 0,8m0,-12a0.5,0.5 0 0 1 0.5,0.5l0,2a0.5,0.5 0 0 1 -1,0l0,-2a0.5,0.5 0 0 1 0.5,-0.5m0,13a0.5,0.5 0 0 1 0.5,0.5l0,2a0.5,0.5 0 0 1 -1,0l0,-2a0.5,0.5 0 0 1 0.5,-0.5m8,-5a0.5,0.5 0 0 1 -0.5,0.5l-2,0a0.5,0.5 0 0 1 0,-1l2,0a0.5,0.5 0 0 1 0.5,0.5m-13,0a0.5,0.5 0 0 1 -0.5,0.5l-2,0a0.5,0.5 0 0 1 0,-1l2,0a0.5,0.5 0 0 1 0.5,0.5m10.66,-5.66a0.5,0.5 0 0 1 0,0.71l-1.42,1.41a0.5,0.5 0 1 1 -0.7,-0.7l1.41,-1.42a0.5,0.5 0 0 1 0.71,0m-9.2,9.2a0.5,0.5 0 0 1 0,0.7l-1.41,1.42a0.5,0.5 0 0 1 -0.71,-0.71l1.42,-1.41a0.5,0.5 0 0 1 0.7,0m9.2,2.12a0.5,0.5 0 0 1 -0.71,0l-1.41,-1.42a0.5,0.5 0 0 1 0.7,-0.7l1.42,1.41a0.5,0.5 0 0 1 0,0.71m-9.2,-9.2a0.5,0.5 0 0 1 -0.7,0l-1.42,-1.41a0.5,0.5 0 1 1 0.71,-0.71l1.41,1.42a0.5,0.5 0 0 1 0,0.7" fill="#ebfff0" id="svg_1"/>
 </g>
</svg>