<?xml version="1.0"?>
<svg width="16" height="16" xmlns="http://www.w3.org/2000/svg" xmlns:svg="http://www.w3.org/2000/svg" class="bi bi-youtube">
 <g class="layer">
  <title>Layer 1</title>
  <path d="m8.05,2l0.09,0c0.82,0 4.99,0.03 6.11,0.33a2.01,2.01 0 0 1 1.41,1.42c0.11,0.38 0.18,0.89 0.22,1.41l0.01,0.1l0.03,0.26l0,0.1c0.07,0.92 0.08,1.77 0.08,1.96l0,0.08c0,0.19 -0.01,1.1 -0.08,2.06l-0.01,0.1l-0.01,0.11c-0.05,0.57 -0.12,1.14 -0.24,1.55a2.01,2.01 0 0 1 -1.41,1.42c-1.16,0.31 -5.57,0.34 -6.18,0.34l-0.14,0c-0.31,0 -1.59,-0.01 -2.93,-0.05l-0.17,-0.01l-0.09,0l-0.17,-0.01l-0.17,-0.01c-1.11,-0.05 -2.17,-0.13 -2.65,-0.26a2.01,2.01 0 0 1 -1.42,-1.42c-0.11,-0.41 -0.18,-0.98 -0.23,-1.55l-0.01,-0.11l-0.01,-0.1a31,31 0 0 1 -0.08,-2.04l0,-0.12c0,-0.22 0.01,-0.96 0.06,-1.78l0.01,-0.1l0,-0.06l0.01,-0.1l0.02,-0.26l0.01,-0.1c0.05,-0.52 0.12,-1.03 0.22,-1.41a2.01,2.01 0 0 1 1.42,-1.42c0.49,-0.13 1.54,-0.21 2.65,-0.26l0.17,0l0.18,-0.01l0.08,0l0.17,-0.01a100,100 0 0 1 2.86,-0.05l0.19,0zm-1.65,3.21l0,4.82l4.16,-2.41l-4.16,-2.41z" fill="#121d12" id="svg_1"/>
 </g>
</svg>